<?xml version="1.0" encoding="UTF-8" standalone="no"?>
<!-- Created with Inkscape (http://www.inkscape.org/) -->

<svg
   xmlns:dc="http://purl.org/dc/elements/1.1/"
   xmlns:cc="http://creativecommons.org/ns#"
   xmlns:rdf="http://www.w3.org/1999/02/22-rdf-syntax-ns#"
   xmlns:svg="http://www.w3.org/2000/svg"
   xmlns="http://www.w3.org/2000/svg"
   xmlns:sodipodi="http://sodipodi.sourceforge.net/DTD/sodipodi-0.dtd"
   xmlns:inkscape="http://www.inkscape.org/namespaces/inkscape"
   width="744.09448819"
   height="1052.3622047"
   id="svg2"
   version="1.1"
   inkscape:version="0.48.2 r9819"
   sodipodi:docname="contact_processing.eps">
  <defs
     id="defs4">
    <clipPath
       id="clipPath4410"
       clipPathUnits="userSpaceOnUse">
      <path
         id="path4412"
         clip-rule="evenodd"
         d="m 7267.37,2747.97 -196.89,640.14 -498.85,649.29 -931.52,148.31 26.14,-241.8 775.03,-122.56 486.26,-602.85 104.56,-490.13 235.27,19.6 z" />
    </clipPath>
    <clipPath
       id="clipPath4308"
       clipPathUnits="userSpaceOnUse">
      <path
         id="path4310"
         clip-rule="evenodd"
         d="m 8357.81,3638.35 -855.45,243.06 -880.06,779.8 -323.72,803.62 229.01,73.49 301.41,-728.77 854.73,-724.28 724.27,-211.43 -50.19,-235.49 z" />
    </clipPath>
    <clipPath
       id="clipPath4152"
       clipPathUnits="userSpaceOnUse">
      <path
         id="path4154"
         clip-rule="evenodd"
         d="m 4279.45,2745.78 -143.78,568.56 -614.3,646.98 -869.18,222.2 -431.32,-45.75 26.14,-228.73 431.32,32.67 745.01,-189.51 516.28,-535.89 104.56,-490.13 235.27,19.6 z" />
    </clipPath>
    <clipPath
       id="clipPath4050"
       clipPathUnits="userSpaceOnUse">
      <path
         id="path4052"
         clip-rule="evenodd"
         d="m 5369.89,3636.16 -855.45,243.06 -880.06,779.8 -323.72,803.62 229.01,73.49 301.4,-728.77 854.73,-724.28 724.28,-211.43 -50.19,-235.49 z" />
    </clipPath>
  </defs>
  <sodipodi:namedview
     id="base"
     pagecolor="#ffffff"
     bordercolor="#666666"
     borderopacity="1.0"
     inkscape:pageopacity="0.0"
     inkscape:pageshadow="2"
     inkscape:zoom="0.49497475"
     inkscape:cx="1252.9552"
     inkscape:cy="702.59986"
     inkscape:document-units="px"
     inkscape:current-layer="layer1"
     showgrid="false"
     inkscape:window-width="1920"
     inkscape:window-height="1021"
     inkscape:window-x="0"
     inkscape:window-y="27"
     inkscape:window-maximized="1" />
  <metadata
     id="metadata7">
    <rdf:RDF>
      <cc:Work
         rdf:about="">
        <dc:format>image/svg+xml</dc:format>
        <dc:type
           rdf:resource="http://purl.org/dc/dcmitype/StillImage" />
        <dc:title></dc:title>
      </cc:Work>
    </rdf:RDF>
  </metadata>
  <g
     inkscape:label="Layer 1"
     inkscape:groupmode="layer"
     id="layer1">
    <path
       id="path3810"
       style="fill:none;stroke:#231f20;stroke-width:0.62814075;stroke-linecap:butt;stroke-linejoin:miter;stroke-miterlimit:2.61310005;stroke-opacity:1;stroke-dasharray:0.62814075, 1.88442;stroke-dashoffset:0"
       d="m 187.3061,253.11183 1.87275,-6.73425 0.14775,-10.24275 -4.18425,-11.142 -8.5515,-13.0245 -11.73675,-13.67925 -8.99925,15.654 -11.1,17.53125 -3.23325,9.7095 -0.85875,8.607 4.0485,5.1135 14.169,7.89975 9.78825,1.29075 10.96575,-3.6195 7.67175,-7.3635 z m -158.686496,-11.394 34.212,-41.42025 17.04825,-35.8965 -3.081,-25.005 -17.7945,-40.357504 23.0055,-50.835 39.469496,-25.095 57.41625,0.5475 54.17925,21.9675 25.638,45.57 1.263,47.625004 -4.83,24.6825 1.815,14.6025 3.09975,5.2575 24.44475,15.9375 20.80275,25.91475 4.9785,44.44275 -26.01825,36.23625 -29.19675,26.0805 -39.699,10.71675 -33.393,5.7735 -27.486,4.158 -30.77925,3.57975 -33.466496,-4.56075 -31.79175,-18.147 -21.624,-29.478 -10.05825,-28.4805 1.84575,-33.81675 z"
       inkscape:connector-curvature="0" />
    <path
       id="path3812"
       style="fill:#e9e9e9;fill-opacity:1;fill-rule:evenodd;stroke:none"
       d="m 131.86235,270.00783 -11.3325,-14.316 1.854,-18.5955 4.66875,-14.01975 12.1485,-19.1865 9.59475,-16.68975 8.56425,-21.16425 -1.68225,-15.855 -8.3505,-14.7825 -0.9405,-18.45 10.54575,-10.815 14.652,1.62 9.6,11.1975 -3.27675,16.92 -6.948,19.8 0.8025,17.6025 8.418,13.01175 11.9835,13.9665 10.42425,15.87675 6.237,16.61025 -0.2355,16.4295 -3.9735,14.286 -14.69775,14.10675 -19.37925,6.39675 -17.8845,-2.358 -20.79225,-11.592 z m -84.171746,-20.8395 31.674,-38.3475 20.50875,-43.18725 -4.12275,-33.4575 -15.4455,-35.032504 17.0325,-37.6425 29.714996,-18.8925 47.96025,0.4575 44.448,18.0225 19.938,35.4375 1.0785,40.665004 -5.0145,25.62 2.6955,21.6975 7.464,12.65925 25.66125,16.7265 15.3255,19.09275 3.51675,31.40175 -20.40825,28.42425 -24.16425,21.585 -34.38075,9.2805 -32.30475,5.586 -26.95275,4.077 -28.008,3.25725 -27.294746,-3.71925 -24.92175,-14.226 -17.47725,-23.8245 -7.80825,-22.11075 1.2855,-23.55"
       inkscape:connector-curvature="0" />
    <path
       id="path3814"
       style="fill:none;stroke:#231f20;stroke-width:0.62814075;stroke-linecap:butt;stroke-linejoin:miter;stroke-miterlimit:2.61310005;stroke-opacity:1;stroke-dasharray:none"
       d="m 131.86235,270.00783 -11.3325,-14.316 1.854,-18.5955 4.66875,-14.01975 12.1485,-19.1865 9.59475,-16.68975 8.56425,-21.16425 -1.68225,-15.855 -8.3505,-14.7825 -0.9405,-18.45 10.54575,-10.815 14.652,1.62 9.6,11.1975 -3.27675,16.92 -6.948,19.8 0.8025,17.6025 8.418,13.01175 11.9835,13.9665 10.42425,15.87675 6.237,16.61025 -0.2355,16.4295 -3.9735,14.286 -14.69775,14.10675 -19.37925,6.39675 -17.8845,-2.358 -20.79225,-11.592 z m -84.171746,-20.8395 31.674,-38.3475 20.50875,-43.18725 -4.12275,-33.4575 -15.4455,-35.032504 17.0325,-37.6425 29.714996,-18.8925 47.96025,0.4575 44.448,18.0225 19.938,35.4375 1.0785,40.665004 -5.0145,25.62 2.6955,21.6975 7.464,12.65925 25.66125,16.7265 15.3255,19.09275 3.51675,31.40175 -20.40825,28.42425 -24.16425,21.585 -34.38075,9.2805 -32.30475,5.586 -26.95275,4.077 -28.008,3.25725 -27.294746,-3.71925 -24.92175,-14.226 -17.47725,-23.8245 -7.80825,-22.11075 1.2855,-23.55 z"
       inkscape:connector-curvature="0" />
    <path
       id="path3816"
       style="fill:none;stroke:#231f20;stroke-width:0.62814075;stroke-linecap:butt;stroke-linejoin:miter;stroke-miterlimit:2.61310005;stroke-opacity:1;stroke-dasharray:0.62814075, 1.88442;stroke-dashoffset:0"
       d="m 311.98985,292.69608 -10.88025,-25.3695 -13.70175,-24.18225 -12.522,-17.29425 -23.03925,-22.065 -16.875,-47.1315 -1.68375,-53.295 40.30125,-46.350004 71.355,4.0875 31.452,44.572504 3.876,30.2025 11.5965,21.9 27.03525,24.57 20.28825,38.95575 16.1565,41.721 -7.86075,40.335 -10.89,38.73825 -45.4035,32.49375 -49.14825,-15.48825 -23.14425,-35.83125 -6.912,-30.56925 z"
       inkscape:connector-curvature="0" />
    <path
       id="path3818"
       style="fill:#e9e9e9;fill-opacity:1;fill-rule:evenodd;stroke:none"
       d="m 330.56585,286.66833 -12.006,-27.9945 -14.7645,-26.05875 -14.18775,-19.59525 -20.997,-20.10825 -14.29725,-39.933 -1.34625,-42.615 29.03775,-33.390004 52.45875,3 23.25675,32.962504 3.71175,28.9125 14.8395,28.0275 26.985,24.522 18.18825,34.926 13.74075,35.48325 -6.63525,34.04625 -8.826,31.398 -31.94925,22.86525 -33.1965,-10.46175 -17.46825,-27.04425 -6.5445,-28.9425"
       inkscape:connector-curvature="0" />
    <path
       id="path3820"
       style="fill:none;stroke:#231f20;stroke-width:0.62814075;stroke-linecap:butt;stroke-linejoin:miter;stroke-miterlimit:2.61310005;stroke-opacity:1;stroke-dasharray:none"
       d="m 330.56585,286.66833 -12.006,-27.9945 -14.7645,-26.05875 -14.18775,-19.59525 -20.997,-20.10825 -14.29725,-39.933 -1.34625,-42.615 29.03775,-33.390004 52.45875,3 23.25675,32.962504 3.71175,28.9125 14.8395,28.0275 26.985,24.522 18.18825,34.926 13.74075,35.48325 -6.63525,34.04625 -8.826,31.398 -31.94925,22.86525 -33.1965,-10.46175 -17.46825,-27.04425 -6.5445,-28.9425 z"
       inkscape:connector-curvature="0" />
    <path
       id="path3822"
       style="fill:#231f20;fill-opacity:1;fill-rule:evenodd;stroke:none"
       d="m 271.21685,216.76983 c -1.67175,0 -3.03525,-1.3635 -3.03525,-3.0345 0,-1.6725 1.3635,-3.03525 3.03525,-3.03525 1.671,0 3.0345,1.36275 3.0345,3.03525 0,1.671 -1.3635,3.0345 -3.0345,3.0345"
       inkscape:connector-curvature="0" />
    <path
       id="path3824"
       style="fill:none;stroke:#231f20;stroke-width:0.62814075;stroke-linecap:butt;stroke-linejoin:miter;stroke-miterlimit:2.61310005;stroke-opacity:1;stroke-dasharray:none"
       d="m 271.21685,216.76983 c -1.67175,0 -3.03525,-1.3635 -3.03525,-3.0345 0,-1.6725 1.3635,-3.03525 3.03525,-3.03525 1.671,0 3.0345,1.36275 3.0345,3.03525 0,1.671 -1.3635,3.0345 -3.0345,3.0345 z"
       inkscape:connector-curvature="0" />
    <path
       id="path3826"
       style="fill:#231f20;fill-opacity:1;fill-rule:evenodd;stroke:none"
       d="m 286.2836,235.68483 c -1.67175,0 -3.0345,-1.3635 -3.0345,-3.03525 0,-1.671 1.36275,-3.0345 3.0345,-3.0345 1.67175,0 3.0345,1.3635 3.0345,3.0345 0,1.67175 -1.36275,3.03525 -3.0345,3.03525"
       inkscape:connector-curvature="0" />
    <path
       id="path3828"
       style="fill:none;stroke:#231f20;stroke-width:0.62814075;stroke-linecap:butt;stroke-linejoin:miter;stroke-miterlimit:2.61310005;stroke-opacity:1;stroke-dasharray:none"
       d="m 286.2836,235.68483 c -1.67175,0 -3.0345,-1.3635 -3.0345,-3.03525 0,-1.671 1.36275,-3.0345 3.0345,-3.0345 1.67175,0 3.0345,1.3635 3.0345,3.0345 0,1.67175 -1.36275,3.03525 -3.0345,3.03525 z"
       inkscape:connector-curvature="0" />
    <path
       id="path3830"
       style="fill:#231f20;fill-opacity:1;fill-rule:evenodd;stroke:none"
       d="m 239.68985,122.57358 c -1.67175,0 -3.03525,-1.365 -3.03525,-3.0375 0,-1.6725 1.3635,-3.0375 3.03525,-3.0375 1.67175,0 3.0345,1.365 3.0345,3.0375 0,1.6725 -1.36275,3.0375 -3.0345,3.0375"
       inkscape:connector-curvature="0" />
    <path
       id="path3832"
       style="fill:none;stroke:#231f20;stroke-width:0.62814075;stroke-linecap:butt;stroke-linejoin:miter;stroke-miterlimit:2.61310005;stroke-opacity:1;stroke-dasharray:none"
       d="m 239.68985,122.57358 c -1.67175,0 -3.03525,-1.365 -3.03525,-3.0375 0,-1.6725 1.3635,-3.0375 3.03525,-3.0375 1.67175,0 3.0345,1.365 3.0345,3.0375 0,1.6725 -1.36275,3.0375 -3.0345,3.0375 z"
       inkscape:connector-curvature="0" />
    <path
       id="path3834"
       style="fill:#231f20;fill-opacity:1;fill-rule:evenodd;stroke:none"
       d="m 240.13085,99.248576 c -1.671,0 -3.0345,-1.365 -3.0345,-3.0375 0,-1.6725 1.3635,-3.0375 3.0345,-3.0375 1.6725,0 3.03525,1.365 3.03525,3.0375 0,1.6725 -1.36275,3.0375 -3.03525,3.0375"
       inkscape:connector-curvature="0" />
    <path
       id="path3836"
       style="fill:none;stroke:#231f20;stroke-width:0.62814075;stroke-linecap:butt;stroke-linejoin:miter;stroke-miterlimit:2.61310005;stroke-opacity:1;stroke-dasharray:none"
       d="m 240.13085,99.248576 c -1.671,0 -3.0345,-1.365 -3.0345,-3.0375 0,-1.6725 1.3635,-3.0375 3.0345,-3.0375 1.6725,0 3.03525,1.365 3.03525,3.0375 0,1.6725 -1.36275,3.0375 -3.03525,3.0375 z"
       inkscape:connector-curvature="0" />
    <path
       id="path3838"
       style="fill:#231f20;fill-opacity:1;fill-rule:evenodd;stroke:none"
       d="m 268.12085,195.77583 c -1.67175,0 -3.03525,-1.36275 -3.03525,-3.0345 0,-1.67175 1.3635,-3.03525 3.03525,-3.03525 1.67175,0 3.0345,1.3635 3.0345,3.03525 0,1.67175 -1.36275,3.0345 -3.0345,3.0345"
       inkscape:connector-curvature="0" />
    <path
       id="path3840"
       style="fill:none;stroke:#231f20;stroke-width:0.62814075;stroke-linecap:butt;stroke-linejoin:miter;stroke-miterlimit:2.61310005;stroke-opacity:1;stroke-dasharray:none"
       d="m 268.12085,195.77583 c -1.67175,0 -3.03525,-1.36275 -3.03525,-3.0345 0,-1.67175 1.3635,-3.03525 3.03525,-3.03525 1.67175,0 3.0345,1.3635 3.0345,3.03525 0,1.67175 -1.36275,3.0345 -3.0345,3.0345 z"
       inkscape:connector-curvature="0" />
    <path
       id="path3842"
       style="fill:#231f20;fill-opacity:1;fill-rule:evenodd;stroke:none"
       d="m 289.2581,215.44308 c -1.671,0 -3.0345,-1.36275 -3.0345,-3.0345 0,-1.67175 1.3635,-3.03525 3.0345,-3.03525 1.6725,0 3.03525,1.3635 3.03525,3.03525 0,1.67175 -1.36275,3.0345 -3.03525,3.0345"
       inkscape:connector-curvature="0" />
    <path
       id="path3844"
       style="fill:none;stroke:#231f20;stroke-width:0.62814075;stroke-linecap:butt;stroke-linejoin:miter;stroke-miterlimit:2.61310005;stroke-opacity:1;stroke-dasharray:none"
       d="m 289.2581,215.44308 c -1.671,0 -3.0345,-1.36275 -3.0345,-3.0345 0,-1.67175 1.3635,-3.03525 3.0345,-3.03525 1.6725,0 3.03525,1.3635 3.03525,3.03525 0,1.67175 -1.36275,3.0345 -3.03525,3.0345 z"
       inkscape:connector-curvature="0" />
    <path
       id="path3846"
       style="fill:#ffffff;fill-opacity:1;fill-rule:evenodd;stroke:none"
       d="m 253.6301,138.43608 c -1.67175,0 -3.0345,-1.365 -3.0345,-3.0375 0,-1.6725 1.36275,-3.03 3.0345,-3.03 1.67175,0 3.0345,1.3575 3.0345,3.03 0,1.6725 -1.36275,3.0375 -3.0345,3.0375"
       inkscape:connector-curvature="0" />
    <path
       id="path3848"
       style="fill:none;stroke:#231f20;stroke-width:0.62814075;stroke-linecap:butt;stroke-linejoin:miter;stroke-miterlimit:2.61310005;stroke-opacity:1;stroke-dasharray:none"
       d="m 253.6301,138.43608 c -1.67175,0 -3.0345,-1.365 -3.0345,-3.0375 0,-1.6725 1.36275,-3.03 3.0345,-3.03 1.67175,0 3.0345,1.3575 3.0345,3.03 0,1.6725 -1.36275,3.0375 -3.0345,3.0375 z"
       inkscape:connector-curvature="0" />
    <path
       id="path3850"
       style="fill:#ffffff;fill-opacity:1;fill-rule:evenodd;stroke:none"
       d="m 253.4336,122.42358 c -1.67175,0 -3.03525,-1.365 -3.03525,-3.03 0,-1.6725 1.3635,-3.0375 3.03525,-3.0375 1.671,0 3.0345,1.365 3.0345,3.0375 0,1.665 -1.3635,3.03 -3.0345,3.03"
       inkscape:connector-curvature="0" />
    <path
       id="path3852"
       style="fill:none;stroke:#231f20;stroke-width:0.62814075;stroke-linecap:butt;stroke-linejoin:miter;stroke-miterlimit:2.61310005;stroke-opacity:1;stroke-dasharray:none"
       d="m 253.4336,122.42358 c -1.67175,0 -3.03525,-1.365 -3.03525,-3.03 0,-1.6725 1.3635,-3.0375 3.03525,-3.0375 1.671,0 3.0345,1.365 3.0345,3.0375 0,1.665 -1.3635,3.03 -3.0345,3.03 z"
       inkscape:connector-curvature="0" />
    <path
       id="path3854"
       style="fill:#ffffff;fill-opacity:1;fill-rule:evenodd;stroke:none"
       d="m 255.94535,110.33358 c -1.67175,0 -3.0345,-1.365 -3.0345,-3.03 0,-1.6725 1.36275,-3.0375 3.0345,-3.0375 1.67175,0 3.0345,1.365 3.0345,3.0375 0,1.665 -1.36275,3.03 -3.0345,3.03"
       inkscape:connector-curvature="0" />
    <path
       id="path3856"
       style="fill:none;stroke:#231f20;stroke-width:0.62814075;stroke-linecap:butt;stroke-linejoin:miter;stroke-miterlimit:2.61310005;stroke-opacity:1;stroke-dasharray:none"
       d="m 255.94535,110.33358 c -1.67175,0 -3.0345,-1.365 -3.0345,-3.03 0,-1.6725 1.36275,-3.0375 3.0345,-3.0375 1.67175,0 3.0345,1.365 3.0345,3.0375 0,1.665 -1.36275,3.03 -3.0345,3.03 z"
       inkscape:connector-curvature="0" />
    <path
       id="path3858"
       style="fill:#ffffff;fill-opacity:1;fill-rule:evenodd;stroke:none"
       d="m 238.22435,151.18608 c -1.67175,0 -3.03525,-1.365 -3.03525,-3.0375 0,-1.6725 1.3635,-3.03 3.03525,-3.03 1.67175,0 3.0345,1.3575 3.0345,3.03 0,1.6725 -1.36275,3.0375 -3.0345,3.0375"
       inkscape:connector-curvature="0" />
    <path
       id="path3860"
       style="fill:none;stroke:#231f20;stroke-width:0.62814075;stroke-linecap:butt;stroke-linejoin:miter;stroke-miterlimit:2.61310005;stroke-opacity:1;stroke-dasharray:none"
       d="m 238.22435,151.18608 c -1.67175,0 -3.03525,-1.365 -3.03525,-3.0375 0,-1.6725 1.3635,-3.03 3.03525,-3.03 1.67175,0 3.0345,1.3575 3.0345,3.03 0,1.6725 -1.36275,3.0375 -3.0345,3.0375 z"
       inkscape:connector-curvature="0" />
    <path
       id="path3862"
       style="fill:none;stroke:#231f20;stroke-width:0.62814075;stroke-linecap:butt;stroke-linejoin:miter;stroke-miterlimit:2.61310005;stroke-opacity:1;stroke-dasharray:none"
       d="m 279.47435,114.87108 c -0.28425,0.0825 -0.6045,0.1425 -0.91275,0.1425"
       inkscape:connector-curvature="0" />
    <path
       id="path3864"
       style="fill:#ffffff;fill-opacity:1;fill-rule:evenodd;stroke:none"
       d="m 239.6426,114.45108 c -1.671,0 -3.0345,-1.365 -3.0345,-3.0375 0,-1.6725 1.3635,-3.0375 3.0345,-3.0375 1.67175,0 3.03525,1.365 3.03525,3.0375 0,1.6725 -1.3635,3.0375 -3.03525,3.0375"
       inkscape:connector-curvature="0" />
    <path
       id="path3866"
       style="fill:none;stroke:#231f20;stroke-width:0.62814075;stroke-linecap:butt;stroke-linejoin:miter;stroke-miterlimit:2.61310005;stroke-opacity:1;stroke-dasharray:none"
       d="m 239.6426,114.45108 c -1.671,0 -3.0345,-1.365 -3.0345,-3.0375 0,-1.6725 1.3635,-3.0375 3.0345,-3.0375 1.67175,0 3.03525,1.365 3.03525,3.0375 0,1.6725 -1.3635,3.0375 -3.03525,3.0375 z"
       inkscape:connector-curvature="0" />
    <path
       id="path3868"
       style="fill:#ffffff;fill-opacity:1;fill-rule:evenodd;stroke:none"
       d="m 260.36435,210.20583 c -1.67175,0 -3.03525,-1.3635 -3.03525,-3.0345 0,-1.67175 1.3635,-3.03525 3.03525,-3.03525 1.67175,0 3.0345,1.3635 3.0345,3.03525 0,1.671 -1.36275,3.0345 -3.0345,3.0345"
       inkscape:connector-curvature="0" />
    <path
       id="path3870"
       style="fill:none;stroke:#231f20;stroke-width:0.62814075;stroke-linecap:butt;stroke-linejoin:miter;stroke-miterlimit:2.61310005;stroke-opacity:1;stroke-dasharray:none"
       d="m 260.36435,210.20583 c -1.67175,0 -3.03525,-1.3635 -3.03525,-3.0345 0,-1.67175 1.3635,-3.03525 3.03525,-3.03525 1.67175,0 3.0345,1.3635 3.0345,3.03525 0,1.671 -1.36275,3.0345 -3.0345,3.0345 z"
       inkscape:connector-curvature="0" />
    <path
       id="path3872"
       style="fill:#ffffff;fill-opacity:1;fill-rule:evenodd;stroke:none"
       d="m 280.41335,207.23133 c -1.67175,0 -3.0345,-1.36275 -3.0345,-3.0345 0,-1.67175 1.36275,-3.0345 3.0345,-3.0345 1.67175,0 3.03525,1.36275 3.03525,3.0345 0,1.67175 -1.3635,3.0345 -3.03525,3.0345"
       inkscape:connector-curvature="0" />
    <path
       id="path3874"
       style="fill:none;stroke:#231f20;stroke-width:0.62814075;stroke-linecap:butt;stroke-linejoin:miter;stroke-miterlimit:2.61310005;stroke-opacity:1;stroke-dasharray:none"
       d="m 280.41335,207.23133 c -1.67175,0 -3.0345,-1.36275 -3.0345,-3.0345 0,-1.67175 1.36275,-3.0345 3.0345,-3.0345 1.67175,0 3.03525,1.36275 3.03525,3.0345 0,1.67175 -1.3635,3.0345 -3.03525,3.0345 z"
       inkscape:connector-curvature="0" />
    <path
       id="path3876"
       style="fill:#ffffff;fill-opacity:1;fill-rule:evenodd;stroke:none"
       d="m 277.75235,225.10458 c -1.671,0 -3.0345,-1.3635 -3.0345,-3.0345 0,-1.6725 1.3635,-3.03525 3.0345,-3.03525 1.6725,0 3.03525,1.36275 3.03525,3.03525 0,1.671 -1.36275,3.0345 -3.03525,3.0345"
       inkscape:connector-curvature="0" />
    <path
       id="path3878"
       style="fill:none;stroke:#231f20;stroke-width:0.62814075;stroke-linecap:butt;stroke-linejoin:miter;stroke-miterlimit:2.61310005;stroke-opacity:1;stroke-dasharray:none"
       d="m 277.75235,225.10458 c -1.671,0 -3.0345,-1.3635 -3.0345,-3.0345 0,-1.6725 1.3635,-3.03525 3.0345,-3.03525 1.6725,0 3.03525,1.36275 3.03525,3.03525 0,1.671 -1.36275,3.0345 -3.03525,3.0345 z"
       inkscape:connector-curvature="0" />
    <path
       id="path3880"
       style="fill:#ffffff;fill-opacity:1;fill-rule:evenodd;stroke:none"
       d="m 297.3686,226.95033 c -1.671,0 -3.0345,-1.36275 -3.0345,-3.0345 0,-1.67175 1.3635,-3.03525 3.0345,-3.03525 1.6725,0 3.03525,1.3635 3.03525,3.03525 0,1.67175 -1.36275,3.0345 -3.03525,3.0345"
       inkscape:connector-curvature="0" />
    <path
       id="path3882"
       style="fill:none;stroke:#231f20;stroke-width:0.62814075;stroke-linecap:butt;stroke-linejoin:miter;stroke-miterlimit:2.61310005;stroke-opacity:1;stroke-dasharray:none"
       d="m 297.3686,226.95033 c -1.671,0 -3.0345,-1.36275 -3.0345,-3.0345 0,-1.67175 1.3635,-3.03525 3.0345,-3.03525 1.6725,0 3.03525,1.3635 3.03525,3.03525 0,1.67175 -1.36275,3.0345 -3.03525,3.0345 z"
       inkscape:connector-curvature="0" />
    <path
       id="path3884"
       style="fill:#231f20;fill-opacity:1;fill-rule:evenodd;stroke:none"
       d="m 253.8596,113.90358 c -1.67175,0 -3.0345,-1.365 -3.0345,-3.0375 0,-1.6725 1.36275,-3.0375 3.0345,-3.0375 1.67175,0 3.0345,1.365 3.0345,3.0375 0,1.6725 -1.36275,3.0375 -3.0345,3.0375"
       inkscape:connector-curvature="0" />
    <path
       id="path3886"
       style="fill:none;stroke:#231f20;stroke-width:0.62814075;stroke-linecap:butt;stroke-linejoin:miter;stroke-miterlimit:2.61310005;stroke-opacity:1;stroke-dasharray:none"
       d="m 253.8596,113.90358 c -1.67175,0 -3.0345,-1.365 -3.0345,-3.0375 0,-1.6725 1.36275,-3.0375 3.0345,-3.0375 1.67175,0 3.0345,1.365 3.0345,3.0375 0,1.6725 -1.36275,3.0375 -3.0345,3.0375 z"
       inkscape:connector-curvature="0" />
    <path
       id="path3888"
       style="fill:#231f20;fill-opacity:1;fill-rule:evenodd;stroke:none"
       d="m 254.24585,155.24358 c -1.67175,0 -3.0345,-1.3575 -3.0345,-3.03 0,-1.6725 1.36275,-3.0375 3.0345,-3.0375 1.67175,0 3.03525,1.365 3.03525,3.0375 0,1.6725 -1.3635,3.03 -3.03525,3.03"
       inkscape:connector-curvature="0" />
    <path
       id="path3890"
       style="fill:none;stroke:#231f20;stroke-width:0.62814075;stroke-linecap:butt;stroke-linejoin:miter;stroke-miterlimit:2.61310005;stroke-opacity:1;stroke-dasharray:none"
       d="m 254.24585,155.24358 c -1.67175,0 -3.0345,-1.3575 -3.0345,-3.03 0,-1.6725 1.36275,-3.0375 3.0345,-3.0375 1.67175,0 3.03525,1.365 3.03525,3.0375 0,1.6725 -1.3635,3.03 -3.03525,3.03 z"
       inkscape:connector-curvature="0" />
    <path
       id="path3892"
       style="fill:#231f20;fill-opacity:1;fill-rule:evenodd;stroke:none"
       d="m 302.50235,234.65733 c -1.67175,0 -3.03525,-1.3635 -3.03525,-3.0345 0,-1.6725 1.3635,-3.03525 3.03525,-3.03525 1.67175,0 3.0345,1.36275 3.0345,3.03525 0,1.671 -1.36275,3.0345 -3.0345,3.0345"
       inkscape:connector-curvature="0" />
    <path
       id="path3894"
       style="fill:none;stroke:#231f20;stroke-width:0.62814075;stroke-linecap:butt;stroke-linejoin:miter;stroke-miterlimit:2.61310005;stroke-opacity:1;stroke-dasharray:none"
       d="m 302.50235,234.65733 c -1.67175,0 -3.03525,-1.3635 -3.03525,-3.0345 0,-1.6725 1.3635,-3.03525 3.03525,-3.03525 1.67175,0 3.0345,1.36275 3.0345,3.03525 0,1.671 -1.36275,3.0345 -3.0345,3.0345 z"
       inkscape:connector-curvature="0" />
    <path
       id="path3896"
       style="fill:none;stroke:#231f20;stroke-width:0.62814075;stroke-linecap:butt;stroke-linejoin:miter;stroke-miterlimit:2.61310005;stroke-opacity:1;stroke-dasharray:0.62814075, 1.88442;stroke-dashoffset:0"
       d="m 254.0966,110.94108 -7.53525,0.06"
       inkscape:connector-curvature="0" />
    <path
       id="path3898"
       style="fill:#231f20;fill-opacity:1;fill-rule:evenodd;stroke:none"
       d="m 243.32285,111.03108 3.29625,1.6125 -0.0285,-3.2775 -3.26775,1.665"
       inkscape:connector-curvature="0" />
    <path
       id="path3900"
       style="fill:none;stroke:#231f20;stroke-width:0.62814075;stroke-linecap:butt;stroke-linejoin:miter;stroke-miterlimit:2.61310005;stroke-opacity:1;stroke-dasharray:0.62814075, 1.88442;stroke-dashoffset:0"
       d="m 239.96285,119.37858 6.813,-0.0525"
       inkscape:connector-curvature="0" />
    <path
       id="path3902"
       style="fill:#231f20;fill-opacity:1;fill-rule:evenodd;stroke:none"
       d="m 250.0151,119.30358 -3.29475,-1.6125 0.0255,3.2775 3.26925,-1.665"
       inkscape:connector-curvature="0" />
    <path
       id="path3904"
       style="fill:none;stroke:#231f20;stroke-width:0.62814075;stroke-linecap:butt;stroke-linejoin:miter;stroke-miterlimit:2.61310005;stroke-opacity:1;stroke-dasharray:0.62814075, 1.88442;stroke-dashoffset:0"
       d="m 241.6301,96.631076 8.82975,6.772504"
       inkscape:connector-curvature="0" />
    <path
       id="path3906"
       style="fill:#231f20;fill-opacity:1;fill-rule:evenodd;stroke:none"
       d="m 253.0301,105.37608 -1.6065,-3.3 -1.99725,2.6025 3.60375,0.6975"
       inkscape:connector-curvature="0" />
    <path
       id="path3908"
       style="fill:none;stroke:#231f20;stroke-width:0.62814075;stroke-linecap:butt;stroke-linejoin:miter;stroke-miterlimit:2.61310005;stroke-opacity:1;stroke-dasharray:0.62814075, 1.88442;stroke-dashoffset:0"
       d="m 253.16285,151.76358 -8.20575,-2.2275"
       inkscape:connector-curvature="0" />
    <path
       id="path3910"
       style="fill:#231f20;fill-opacity:1;fill-rule:evenodd;stroke:none"
       d="m 241.8311,148.68858 2.73825,2.445 0.858,-3.165 -3.59625,0.72"
       inkscape:connector-curvature="0" />
    <path
       id="path3912"
       style="fill:none;stroke:#231f20;stroke-width:0.62814075;stroke-linecap:butt;stroke-linejoin:miter;stroke-miterlimit:2.61310005;stroke-opacity:1;stroke-dasharray:0.62814075, 1.88442;stroke-dashoffset:0"
       d="m 238.39835,135.37608 8.403,0.1125"
       inkscape:connector-curvature="0" />
    <path
       id="path3914"
       style="fill:#231f20;fill-opacity:1;fill-rule:evenodd;stroke:none"
       d="m 250.03985,135.53358 -3.25875,-1.68 -0.0457,3.2775 3.3045,-1.5975"
       inkscape:connector-curvature="0" />
    <path
       id="path3916"
       style="fill:none;stroke:#231f20;stroke-width:0.62814075;stroke-linecap:butt;stroke-linejoin:miter;stroke-miterlimit:2.61310005;stroke-opacity:1;stroke-dasharray:0.62814075, 1.88442;stroke-dashoffset:0"
       d="m 268.31435,192.51933 -4.65075,9.2025"
       inkscape:connector-curvature="0" />
    <path
       id="path3918"
       style="fill:#231f20;fill-opacity:1;fill-rule:evenodd;stroke:none"
       d="m 262.2026,204.61233 2.94525,-2.1885 -2.92875,-1.4805 -0.0165,3.669"
       inkscape:connector-curvature="0" />
    <path
       id="path3920"
       style="fill:none;stroke:#231f20;stroke-width:0.62814075;stroke-linecap:butt;stroke-linejoin:miter;stroke-miterlimit:2.61310005;stroke-opacity:1;stroke-dasharray:0.62814075, 1.88442;stroke-dashoffset:0"
       d="m 272.5301,212.11233 3.261,-3.25575"
       inkscape:connector-curvature="0" />
    <path
       id="path3922"
       style="fill:#231f20;fill-opacity:1;fill-rule:evenodd;stroke:none"
       d="m 278.0831,206.56833 -3.48225,1.15725 2.319,2.32275 1.16325,-3.48"
       inkscape:connector-curvature="0" />
    <path
       id="path3924"
       style="fill:none;stroke:#231f20;stroke-width:0.62814075;stroke-linecap:butt;stroke-linejoin:miter;stroke-miterlimit:2.61310005;stroke-opacity:1;stroke-dasharray:0.62814075, 1.88442;stroke-dashoffset:0"
       d="m 288.52685,212.99133 -5.69625,4.944"
       inkscape:connector-curvature="0" />
    <path
       id="path3926"
       style="fill:#231f20;fill-opacity:1;fill-rule:evenodd;stroke:none"
       d="m 280.3841,220.05783 3.55425,-0.912 -2.151,-2.47875 -1.40325,3.39075"
       inkscape:connector-curvature="0" />
    <path
       id="path3928"
       style="fill:none;stroke:#231f20;stroke-width:0.62814075;stroke-linecap:butt;stroke-linejoin:miter;stroke-miterlimit:2.61310005;stroke-opacity:1;stroke-dasharray:0.62814075, 1.88442;stroke-dashoffset:0"
       d="m 289.18085,230.46108 3.267,-2.74425"
       inkscape:connector-curvature="0" />
    <path
       id="path3930"
       style="fill:#231f20;fill-opacity:1;fill-rule:evenodd;stroke:none"
       d="m 294.9281,225.63333 -3.5685,0.85425 2.11125,2.514 1.45725,-3.36825"
       inkscape:connector-curvature="0" />
    <path
       id="path3932"
       style="fill:#231f20;fill-opacity:1;fill-rule:evenodd;stroke:none"
       d="m 253.5431,133.56108 c -1.671,0 -3.0345,-1.3575 -3.0345,-3.03 0,-1.6725 1.3635,-3.0375 3.0345,-3.0375 1.67175,0 3.03525,1.365 3.03525,3.0375 0,1.6725 -1.3635,3.03 -3.03525,3.03"
       inkscape:connector-curvature="0" />
    <path
       id="path3934"
       style="fill:none;stroke:#231f20;stroke-width:0.62814075;stroke-linecap:butt;stroke-linejoin:miter;stroke-miterlimit:2.61310005;stroke-opacity:1;stroke-dasharray:none"
       d="m 253.5431,133.56108 c -1.671,0 -3.0345,-1.3575 -3.0345,-3.03 0,-1.6725 1.3635,-3.0375 3.0345,-3.0375 1.67175,0 3.03525,1.365 3.03525,3.0375 0,1.6725 -1.3635,3.03 -3.03525,3.03 z"
       inkscape:connector-curvature="0" />
    <path
       id="path3936"
       style="fill:#ffffff;fill-opacity:1;fill-rule:evenodd;stroke:none"
       d="m 239.9846,133.54608 c -1.67175,0 -3.0345,-1.365 -3.0345,-3.0375 0,-1.665 1.36275,-3.03 3.0345,-3.03 1.67175,0 3.0345,1.365 3.0345,3.03 0,1.6725 -1.36275,3.0375 -3.0345,3.0375"
       inkscape:connector-curvature="0" />
    <path
       id="path3938"
       style="fill:none;stroke:#231f20;stroke-width:0.62814075;stroke-linecap:butt;stroke-linejoin:miter;stroke-miterlimit:2.61310005;stroke-opacity:1;stroke-dasharray:none"
       d="m 239.9846,133.54608 c -1.67175,0 -3.0345,-1.365 -3.0345,-3.0375 0,-1.665 1.36275,-3.03 3.0345,-3.03 1.67175,0 3.0345,1.365 3.0345,3.03 0,1.6725 -1.36275,3.0375 -3.0345,3.0375 z"
       inkscape:connector-curvature="0" />
    <path
       id="path3940"
       style="fill:#231f20;fill-opacity:1;fill-rule:evenodd;stroke:none"
       d="m 240.1856,138.87108 c -1.67175,0 -3.0345,-1.3575 -3.0345,-3.03 0,-1.6725 1.36275,-3.0375 3.0345,-3.0375 1.67175,0 3.03525,1.365 3.03525,3.0375 0,1.6725 -1.3635,3.03 -3.03525,3.03"
       inkscape:connector-curvature="0" />
    <path
       id="path3942"
       style="fill:none;stroke:#231f20;stroke-width:0.62814075;stroke-linecap:butt;stroke-linejoin:miter;stroke-miterlimit:2.61310005;stroke-opacity:1;stroke-dasharray:none"
       d="m 240.1856,138.87108 c -1.67175,0 -3.0345,-1.3575 -3.0345,-3.03 0,-1.6725 1.36275,-3.0375 3.0345,-3.0375 1.67175,0 3.03525,1.365 3.03525,3.0375 0,1.6725 -1.3635,3.03 -3.03525,3.03 z"
       inkscape:connector-curvature="0" />
    <path
       id="path3944"
       style="fill:none;stroke:#231f20;stroke-width:0.62814075;stroke-linecap:butt;stroke-linejoin:miter;stroke-miterlimit:2.61310005;stroke-opacity:1;stroke-dasharray:0.62814075, 1.88442;stroke-dashoffset:0"
       d="m 253.6271,130.48608 -7.671,-0.015"
       inkscape:connector-curvature="0" />
    <path
       id="path3946"
       style="fill:#231f20;fill-opacity:1;fill-rule:evenodd;stroke:none"
       d="m 242.7176,130.46358 3.2775,1.6425 0.009,-3.2775 -3.2865,1.635"
       inkscape:connector-curvature="0" />
    <path
       id="path3948"
       style="fill:none;stroke:#231f20;stroke-width:0.62814075;stroke-linecap:butt;stroke-linejoin:miter;stroke-miterlimit:2.61310005;stroke-opacity:1;stroke-dasharray:0.62814075, 1.88442;stroke-dashoffset:0"
       d="m 303.0941,232.15383 -9.82425,1.03275"
       inkscape:connector-curvature="0" />
    <path
       id="path3950"
       style="fill:#231f20;fill-opacity:1;fill-rule:evenodd;stroke:none"
       d="m 290.0486,233.52558 3.43575,1.28925 -0.3435,-3.26475 -3.09225,1.9755"
       inkscape:connector-curvature="0" />
    <path
       id="path3952"
       style="fill:#231f20;fill-opacity:1;fill-rule:evenodd;stroke:none"
       d="m 154.7516,152.27358 c -1.67175,0 -3.0345,-1.365 -3.0345,-3.0375 0,-1.665 1.36275,-3.03 3.0345,-3.03 1.67175,0 3.03525,1.365 3.03525,3.03 0,1.6725 -1.3635,3.0375 -3.03525,3.0375"
       inkscape:connector-curvature="0" />
    <path
       id="path3954"
       style="fill:none;stroke:#231f20;stroke-width:0.62814075;stroke-linecap:butt;stroke-linejoin:miter;stroke-miterlimit:2.61310005;stroke-opacity:1;stroke-dasharray:none"
       d="m 154.7516,152.27358 c -1.67175,0 -3.0345,-1.365 -3.0345,-3.0375 0,-1.665 1.36275,-3.03 3.0345,-3.03 1.67175,0 3.03525,1.365 3.03525,3.03 0,1.6725 -1.3635,3.0375 -3.03525,3.0375 z"
       inkscape:connector-curvature="0" />
    <path
       id="path3956"
       style="fill:#231f20;fill-opacity:1;fill-rule:evenodd;stroke:none"
       d="m 170.5706,159.30108 c -1.67175,0 -3.0345,-1.3575 -3.0345,-3.03 0,-1.6725 1.36275,-3.0375 3.0345,-3.0375 1.67175,0 3.0345,1.365 3.0345,3.0375 0,1.6725 -1.36275,3.03 -3.0345,3.03"
       inkscape:connector-curvature="0" />
    <path
       id="path3958"
       style="fill:none;stroke:#231f20;stroke-width:0.62814075;stroke-linecap:butt;stroke-linejoin:miter;stroke-miterlimit:2.61310005;stroke-opacity:1;stroke-dasharray:none"
       d="m 170.5706,159.30108 c -1.67175,0 -3.0345,-1.3575 -3.0345,-3.03 0,-1.6725 1.36275,-3.0375 3.0345,-3.0375 1.67175,0 3.0345,1.365 3.0345,3.0375 0,1.6725 -1.36275,3.03 -3.0345,3.03 z"
       inkscape:connector-curvature="0" />
    <path
       id="path3960"
       style="fill:#231f20;fill-opacity:1;fill-rule:evenodd;stroke:none"
       d="m 171.44885,175.56108 c -1.671,0 -3.0345,-1.365 -3.0345,-3.03 0,-1.6725 1.3635,-3.0375 3.0345,-3.0375 1.6725,0 3.03525,1.365 3.03525,3.0375 0,1.665 -1.36275,3.03 -3.03525,3.03"
       inkscape:connector-curvature="0" />
    <path
       id="path3962"
       style="fill:none;stroke:#231f20;stroke-width:0.62814075;stroke-linecap:butt;stroke-linejoin:miter;stroke-miterlimit:2.61310005;stroke-opacity:1;stroke-dasharray:none"
       d="m 171.44885,175.56108 c -1.671,0 -3.0345,-1.365 -3.0345,-3.03 0,-1.6725 1.3635,-3.0375 3.0345,-3.0375 1.6725,0 3.03525,1.365 3.03525,3.0375 0,1.665 -1.36275,3.03 -3.03525,3.03 z"
       inkscape:connector-curvature="0" />
    <path
       id="path3964"
       style="fill:#ffffff;fill-opacity:1;fill-rule:evenodd;stroke:none"
       d="m 156.63935,160.85358 c -1.67175,0 -3.0345,-1.365 -3.0345,-3.0375 0,-1.6725 1.36275,-3.03 3.0345,-3.03 1.67175,0 3.03525,1.3575 3.03525,3.03 0,1.6725 -1.3635,3.0375 -3.03525,3.0375"
       inkscape:connector-curvature="0" />
    <path
       id="path3966"
       style="fill:none;stroke:#231f20;stroke-width:0.62814075;stroke-linecap:butt;stroke-linejoin:miter;stroke-miterlimit:2.61310005;stroke-opacity:1;stroke-dasharray:none"
       d="m 156.63935,160.85358 c -1.67175,0 -3.0345,-1.365 -3.0345,-3.0375 0,-1.6725 1.36275,-3.03 3.0345,-3.03 1.67175,0 3.03525,1.3575 3.03525,3.03 0,1.6725 -1.3635,3.0375 -3.03525,3.0375 z"
       inkscape:connector-curvature="0" />
    <path
       id="path3968"
       style="fill:#ffffff;fill-opacity:1;fill-rule:evenodd;stroke:none"
       d="m 155.6681,172.98108 c -1.671,0 -3.0345,-1.365 -3.0345,-3.0375 0,-1.6725 1.3635,-3.0375 3.0345,-3.0375 1.67175,0 3.03525,1.365 3.03525,3.0375 0,1.6725 -1.3635,3.0375 -3.03525,3.0375"
       inkscape:connector-curvature="0" />
    <path
       id="path3970"
       style="fill:none;stroke:#231f20;stroke-width:0.62814075;stroke-linecap:butt;stroke-linejoin:miter;stroke-miterlimit:2.61310005;stroke-opacity:1;stroke-dasharray:none"
       d="m 155.6681,172.98108 c -1.671,0 -3.0345,-1.365 -3.0345,-3.0375 0,-1.6725 1.3635,-3.0375 3.0345,-3.0375 1.67175,0 3.03525,1.365 3.03525,3.0375 0,1.6725 -1.3635,3.0375 -3.03525,3.0375 z"
       inkscape:connector-curvature="0" />
    <path
       id="path3972"
       style="fill:#231f20;fill-opacity:1;fill-rule:evenodd;stroke:none"
       d="m 156.5096,168.96858 c -1.67175,0 -3.03525,-1.3575 -3.03525,-3.03 0,-1.6725 1.3635,-3.0375 3.03525,-3.0375 1.671,0 3.0345,1.365 3.0345,3.0375 0,1.6725 -1.3635,3.03 -3.0345,3.03"
       inkscape:connector-curvature="0" />
    <path
       id="path3974"
       style="fill:none;stroke:#231f20;stroke-width:0.62814075;stroke-linecap:butt;stroke-linejoin:miter;stroke-miterlimit:2.61310005;stroke-opacity:1;stroke-dasharray:none"
       d="m 156.5096,168.96858 c -1.67175,0 -3.03525,-1.3575 -3.03525,-3.03 0,-1.6725 1.3635,-3.0375 3.03525,-3.0375 1.671,0 3.0345,1.365 3.0345,3.0375 0,1.6725 -1.3635,3.03 -3.0345,3.03 z"
       inkscape:connector-curvature="0" />
    <path
       id="path3976"
       style="fill:none;stroke:#231f20;stroke-width:0.62814075;stroke-linecap:butt;stroke-linejoin:miter;stroke-miterlimit:2.61310005;stroke-opacity:1;stroke-dasharray:0.62814075, 1.88442;stroke-dashoffset:0"
       d="m 154.7156,148.93608 10.01475,4.785"
       inkscape:connector-curvature="0" />
    <path
       id="path3978"
       style="fill:#231f20;fill-opacity:1;fill-rule:evenodd;stroke:none"
       d="m 167.6531,155.11608 -2.25525,-2.895 -1.41375,2.9625 3.669,-0.0675"
       inkscape:connector-curvature="0" />
    <path
       id="path3980"
       style="fill:none;stroke:#231f20;stroke-width:0.62814075;stroke-linecap:butt;stroke-linejoin:miter;stroke-miterlimit:2.61310005;stroke-opacity:1;stroke-dasharray:0.62814075, 1.88442;stroke-dashoffset:0"
       d="m 155.99735,166.11108 8.163,-0.345"
       inkscape:connector-curvature="0" />
    <path
       id="path3982"
       style="fill:#231f20;fill-opacity:1;fill-rule:evenodd;stroke:none"
       d="m 167.3966,165.63108 -3.3495,-1.5 0.1395,3.2775 3.21,-1.7775"
       inkscape:connector-curvature="0" />
    <path
       id="path3984"
       style="fill:#ffffff;fill-opacity:1;fill-rule:evenodd;stroke:none"
       d="m 170.74085,168.28608 c -1.67175,0 -3.03525,-1.3575 -3.03525,-3.03 0,-1.6725 1.3635,-3.0375 3.03525,-3.0375 1.67175,0 3.0345,1.365 3.0345,3.0375 0,1.6725 -1.36275,3.03 -3.0345,3.03"
       inkscape:connector-curvature="0" />
    <path
       id="path3986"
       style="fill:none;stroke:#231f20;stroke-width:0.62814075;stroke-linecap:butt;stroke-linejoin:miter;stroke-miterlimit:2.61310005;stroke-opacity:1;stroke-dasharray:none"
       d="m 170.74085,168.28608 c -1.67175,0 -3.03525,-1.3575 -3.03525,-3.03 0,-1.6725 1.3635,-3.0375 3.03525,-3.0375 1.67175,0 3.0345,1.365 3.0345,3.0375 0,1.6725 -1.36275,3.03 -3.0345,3.03 z"
       inkscape:connector-curvature="0" />
    <path
       id="path3988"
       style="fill:none;stroke:#231f20;stroke-width:0.62814075;stroke-linecap:butt;stroke-linejoin:miter;stroke-miterlimit:2.61310005;stroke-opacity:1;stroke-dasharray:0.62814075, 1.88442;stroke-dashoffset:0"
       d="m 170.09885,156.11358 -6.66075,0.885"
       inkscape:connector-curvature="0" />
    <path
       id="path3990"
       style="fill:#231f20;fill-opacity:1;fill-rule:evenodd;stroke:none"
       d="m 160.22735,157.42608 3.4695,1.1925 -0.43125,-3.255 -3.03825,2.0625"
       inkscape:connector-curvature="0" />
    <path
       id="path3992"
       style="fill:none;stroke:#231f20;stroke-width:0.62814075;stroke-linecap:butt;stroke-linejoin:miter;stroke-miterlimit:2.61310005;stroke-opacity:1;stroke-dasharray:0.62814075, 1.88442;stroke-dashoffset:0"
       d="m 171.1241,172.77858 -8.7285,-1.4775"
       inkscape:connector-curvature="0" />
    <path
       id="path3994"
       style="fill:#231f20;fill-opacity:1;fill-rule:evenodd;stroke:none"
       d="m 159.2021,170.75358 2.961,2.1675 0.549,-3.2325 -3.51,1.065"
       inkscape:connector-curvature="0" />
    <path
       id="path3996"
       style="fill:none;stroke:#231f20;stroke-width:0.62814075;stroke-linecap:butt;stroke-linejoin:miter;stroke-miterlimit:2.61310005;stroke-opacity:1;stroke-dasharray:none"
       d="m 47.690604,249.16833 31.674,-38.3475 20.50875,-43.18725 -4.12275,-33.4575 -15.4455,-35.032504 17.0325,-37.6425 29.714996,-18.8925 47.96025,0.4575 44.448,18.0225 19.938,35.4375 1.0785,40.665004 -5.0145,25.62 2.6955,21.6975 7.464,12.65925 25.66125,16.7265 15.3255,19.09275 3.51675,31.40175 -20.40825,28.42425 -24.16425,21.585 -34.38075,9.2805 -32.30475,5.586 -26.95275,4.077 -28.008,3.25725 -27.294746,-3.71925 -24.92175,-14.226 -17.47725,-23.8245 -7.80825,-22.11075 1.2855,-23.55 z"
       inkscape:connector-curvature="0" />
    <path
       id="path3998"
       style="fill:none;stroke:#231f20;stroke-width:0.62814075;stroke-linecap:butt;stroke-linejoin:miter;stroke-miterlimit:2.61310005;stroke-opacity:1;stroke-dasharray:3.1407, 3.1407;stroke-dashoffset:0"
       d="m 232.36985,375.07908 223.92075,0 0,-318.956254 -223.92075,0 0,318.956254 z"
       inkscape:connector-curvature="0" />
    <path
       id="path4000"
       style="fill:none;stroke:#231f20;stroke-width:0.62814075;stroke-linecap:butt;stroke-linejoin:miter;stroke-miterlimit:2.61310005;stroke-opacity:1;stroke-dasharray:3.1407, 3.1407;stroke-dashoffset:0"
       d="m 26.024604,356.20233 285.107996,0 0,-333.928504 -285.107996,0 0,333.928504 z"
       inkscape:connector-curvature="0" />
    <path
       id="path4002"
       style="fill:none;stroke:#231f20;stroke-width:0.62814075;stroke-linecap:butt;stroke-linejoin:miter;stroke-miterlimit:2.61310005;stroke-opacity:1;stroke-dasharray:0.62814075, 1.88442;stroke-dashoffset:0"
       d="m 120.10085,283.83483 -18.003,-22.7415 2.76675,-27.73875 5.98275,-17.96625 13.10775,-20.7015 8.796,-15.30075 6.43425,-15.9 -0.8235,-7.7625 -8.6025,-15.2175 -1.55025,-30.42 22.04325,-22.597504 30.2715,3.3375 19.77525,23.062504 -5.15925,26.6475 -6.237,17.775 0.426,9.3375 5.14725,7.9575 11.9445,13.9185 12.13875,18.48975 8.1165,21.615 -0.3165,22.09425 -5.8965,21.1995 -21.12975,20.28 -27.08175,8.9385 -25.296,-3.3345 -26.8545,-14.97225 z"
       inkscape:connector-curvature="0" />
    <path
       id="path4004"
       style="fill:none;stroke:#231f20;stroke-width:0.62814075;stroke-linecap:butt;stroke-linejoin:miter;stroke-miterlimit:2.61310005;stroke-opacity:1;stroke-dasharray:3.1407, 3.1407;stroke-dashoffset:0"
       d="m 101.53235,302.17458 124.97925,0 0,-215.458504 -124.97925,0 0,215.458504 z"
       inkscape:connector-curvature="0" />
    <path
       id="path4006"
       style="fill:#231f20;fill-opacity:1;fill-rule:evenodd;stroke:none"
       d="m 75.394104,297.80058 0.0495,-0.39225 c 0.39225,-0.11625 0.62325,-0.2115 0.6915,-0.28125 0.0705,-0.0735 0.123,-0.204 0.16275,-0.39525 0.186,-0.8685 0.45975,-2.4315 0.81675,-4.69275 0.35925,-2.25825 0.53775,-3.51675 0.53775,-3.771 0,-0.2055 -0.0727,-0.339 -0.22125,-0.39675 -0.093,-0.0405 -0.45675,-0.0833 -1.0875,-0.12525 l 0.0578,-0.405 c 0.69075,0.0375 1.191,0.0577 1.49475,0.0577 0.2205,0 0.7365,-0.015 1.545,-0.045 l 0.897,-0.0127 c 1.01775,0 1.74375,0.171 2.181,0.51525 0.429,0.3465 0.64575,0.83925 0.64575,1.47225 0,0.603 -0.21675,1.16325 -0.64575,1.6785 -0.43275,0.5145 -1.12125,0.939 -2.06325,1.27125 0.89475,0.12225 1.5105,0.309 1.8495,0.5595 0.4395,0.32475 0.66075,0.8445 0.66075,1.56075 0,0.8535 -0.37425,1.61025 -1.12575,2.26875 -0.88425,0.77325 -1.839,1.16025 -2.87175,1.16025 -0.171,0 -0.49725,-0.007 -0.97725,-0.027 -0.462,-0.021 -0.8385,-0.0308 -1.1325,-0.0308 -0.33975,0 -0.8295,0.01 -1.46475,0.0308 z m 2.86125,-5.7135 c 0.324,0.0203 0.5655,0.03 0.72075,0.03 0.90975,0 1.62075,-0.24375 2.13825,-0.7335 0.5175,-0.4875 0.77625,-1.1235 0.77625,-1.9095 0,-0.4995 -0.15825,-0.8865 -0.48,-1.16325 -0.32175,-0.27375 -0.81375,-0.41175 -1.47675,-0.41175 -0.24375,0 -0.55575,0.0172 -0.9345,0.0525 -0.23175,0.87675 -0.47775,2.256 -0.744,4.1355 z m -0.77175,5.00475 c 0.60825,0.11775 1.101,0.1785 1.4775,0.1785 0.957,0 1.6485,-0.25425 2.073,-0.762 0.4245,-0.50925 0.63825,-1.15725 0.63825,-1.947 0,-0.62775 -0.19125,-1.1055 -0.57075,-1.4295 -0.38175,-0.324 -0.9975,-0.4845 -1.85175,-0.4845 -0.29325,0 -0.65775,0.0172 -1.08975,0.0503 -0.216,1.25625 -0.4425,2.721 -0.6765,4.39425"
       inkscape:connector-curvature="0" />
    <path
       id="path4008"
       style="fill:#231f20;fill-opacity:1;fill-rule:evenodd;stroke:none"
       d="m 84.619104,300.81108 0.0247,-0.21675 0.33975,-0.027 c 0.2085,-0.015 0.351,-0.0442 0.4305,-0.0877 0.054,-0.0353 0.10275,-0.0915 0.147,-0.171 0.0443,-0.0802 0.0915,-0.27525 0.14325,-0.5835 l 0.3315,-1.98 c 0.1005,-0.60075 0.186,-1.1595 0.25725,-1.67475 -0.26925,0.10575 -0.74475,0.30675 -1.42425,0.6045 l -0.0472,0 c 0.0285,-0.17475 0.0525,-0.32775 0.0697,-0.46125 0.3405,-0.0727 0.69975,-0.17325 1.07775,-0.2985 0.37875,-0.1275 0.68625,-0.249 0.924,-0.3675 l 0.11775,0.0847 c -0.201,0.99375 -0.342,1.7385 -0.42375,2.23425 l -0.30825,2.01225 c -0.0105,0.096 -0.0158,0.19125 -0.0158,0.28425 0,0.17625 0.045,0.28425 0.13725,0.324 0.09,0.039 0.36675,0.0743 0.828,0.10725 l -0.0368,0.21675 c -0.4635,-0.0172 -0.8655,-0.0262 -1.20375,-0.0262 -0.35625,0 -0.81225,0.009 -1.36875,0.0262"
       inkscape:connector-curvature="0" />
    <path
       id="path4010"
       style="fill:#231f20;fill-opacity:1;fill-rule:evenodd;stroke:none"
       d="m 374.6216,331.88508 0.0495,-0.39225 c 0.39225,-0.1155 0.62325,-0.21075 0.6915,-0.28125 0.0705,-0.0728 0.123,-0.20325 0.16275,-0.3945 0.186,-0.86925 0.45975,-2.43225 0.81675,-4.6935 0.35925,-2.2575 0.53775,-3.51675 0.53775,-3.77025 0,-0.20625 -0.0727,-0.339 -0.22125,-0.3975 -0.093,-0.0397 -0.45675,-0.0832 -1.0875,-0.12525 l 0.0577,-0.40425 c 0.69075,0.0375 1.191,0.0578 1.49475,0.0578 0.22125,0 0.7365,-0.015 1.545,-0.045 l 0.897,-0.0127 c 1.01775,0 1.74375,0.17025 2.181,0.51525 0.42975,0.3465 0.645,0.8385 0.645,1.4715 0,0.603 -0.21525,1.16325 -0.645,1.6785 -0.43275,0.51525 -1.1205,0.93975 -2.0625,1.27125 0.894,0.123 1.509,0.309 1.84875,0.56025 0.44025,0.324 0.66075,0.8445 0.66075,1.56075 0,0.8535 -0.37425,1.6095 -1.12575,2.268 -0.88425,0.774 -1.839,1.16025 -2.87175,1.16025 -0.17025,0 -0.49725,-0.007 -0.9765,-0.027 -0.46275,-0.0203 -0.84,-0.0308 -1.13325,-0.0308 -0.33975,0 -0.8295,0.0105 -1.46475,0.0308 z m 2.86125,-5.7135 c 0.324,0.0202 0.5655,0.03 0.72075,0.03 0.90975,0 1.62075,-0.243 2.13825,-0.73275 0.5175,-0.4875 0.77625,-1.1235 0.77625,-1.9095 0,-0.50025 -0.15825,-0.88725 -0.48,-1.16325 -0.321,-0.27375 -0.81375,-0.4125 -1.47675,-0.4125 -0.24375,0 -0.55575,0.018 -0.9345,0.0525 -0.23175,0.8775 -0.47775,2.25675 -0.744,4.1355 z m -0.771,5.00475 c 0.60825,0.1185 1.10025,0.1785 1.47675,0.1785 0.95775,0 1.64775,-0.25425 2.073,-0.76125 0.4245,-0.51 0.63825,-1.158 0.63825,-1.947 0,-0.6285 -0.19125,-1.1055 -0.57075,-1.4295 -0.38175,-0.32475 -0.9975,-0.48525 -1.85175,-0.48525 -0.29325,0 -0.65775,0.018 -1.08975,0.051 -0.216,1.25625 -0.4425,2.72025 -0.67575,4.3935"
       inkscape:connector-curvature="0" />
    <path
       id="path4012"
       style="fill:#231f20;fill-opacity:1;fill-rule:evenodd;stroke:none"
       d="m 383.4671,334.89633 0,-0.15225 c 1.089,-1.10775 1.80825,-1.95075 2.157,-2.52675 0.2595,-0.4275 0.38925,-0.8235 0.38925,-1.1865 0,-0.2865 -0.0735,-0.50775 -0.2235,-0.66225 -0.14925,-0.1545 -0.354,-0.23175 -0.612,-0.23175 -0.213,0 -0.405,0.0615 -0.5775,0.1815 -0.171,0.12225 -0.34125,0.342 -0.5115,0.6615 l -0.17325,-0.081 0.46125,-0.8865 c 0.159,-0.1185 0.3225,-0.20625 0.492,-0.264 0.1695,-0.0577 0.34275,-0.0862 0.519,-0.0862 0.3855,0 0.69225,0.111 0.918,0.33525 0.22725,0.2235 0.3405,0.52275 0.3405,0.89775 0,0.17475 -0.0225,0.342 -0.069,0.5025 -0.0465,0.16125 -0.132,0.3435 -0.25575,0.54675 -0.1245,0.20325 -0.3555,0.49125 -0.69375,0.86025 l -1.44,1.52775 0,0.0472 1.12725,0 c 0.456,0 0.879,-0.015 1.26825,-0.0472 l 0.042,0.0472 c -0.0225,0.0743 -0.063,0.24675 -0.1215,0.51675 -0.51825,-0.0172 -1.0545,-0.0263 -1.60875,-0.0263 -0.4935,0 -0.96975,0.009 -1.428,0.0263"
       inkscape:connector-curvature="0" />
    <path
       id="path4014"
       style="fill:#231f20;fill-opacity:1;fill-rule:evenodd;stroke:none"
       d="m 49.025604,182.72358 c -0.0705,0.1725 -0.1275,0.3525 -0.1785,0.5325 -0.588,0.4575 -1.19325,0.795 -1.8135,0.9975 -0.621,0.21 -1.3095,0.315 -2.0655,0.315 -1.437,0 -2.55225,-0.3975 -3.34425,-1.185 -0.7935,-0.7875 -1.188,-1.905 -1.188,-3.345 0,-1.8075 0.57,-3.2775 1.713,-4.41 1.22925,-1.2225 2.70825,-1.83 4.4475,-1.83 0.53475,0 1.05525,0.0525 1.56225,0.15 0.51,0.105 1.0005,0.255 1.4775,0.4575 -0.1905,0.6975 -0.324,1.4175 -0.39675,2.1525 l -0.4275,0 c -0.015,-0.2475 -0.0225,-0.4425 -0.0225,-0.57 l 0.0225,-0.645 c -0.4875,-0.315 -0.92925,-0.525 -1.329,-0.645 -0.39975,-0.1125 -0.87375,-0.1725 -1.42425,-0.1725 -0.91725,0 -1.668,0.18 -2.25375,0.5475 -0.58275,0.36 -1.07025,0.96 -1.464,1.8 -0.393,0.8325 -0.588,1.7925 -0.588,2.8575 0,1.29 0.33075,2.2875 0.9945,2.985 0.66075,0.6975 1.5675,1.05 2.71575,1.05 0.543,0 1.065,-0.075 1.5675,-0.2325 0.50025,-0.1575 1.1055,-0.4575 1.8165,-0.9 l 0.1785,0.09"
       inkscape:connector-curvature="0" />
    <path
       id="path4016"
       style="fill:#231f20;fill-opacity:1;fill-rule:evenodd;stroke:none"
       d="m 49.993104,187.41033 0.0247,-0.21675 0.33975,-0.0263 c 0.20775,-0.0158 0.351,-0.0443 0.4305,-0.0885 0.054,-0.0353 0.10275,-0.0915 0.147,-0.171 0.0442,-0.0803 0.0915,-0.2745 0.14325,-0.5835 l 0.3315,-1.98075 c 0.1005,-0.6 0.186,-1.1625 0.25725,-1.6725 -0.27,0.105 -0.74475,0.3075 -1.42425,0.6 l -0.0473,0 c 0.0285,-0.1725 0.0525,-0.3225 0.0697,-0.4575 0.3405,-0.075 0.69975,-0.1725 1.07775,-0.3 0.378,-0.1275 0.68625,-0.2475 0.92325,-0.3675 l 0.11775,0.0825 c -0.20025,0.9975 -0.34125,1.74 -0.423,2.235 l -0.309,2.01525 c -0.0105,0.0953 -0.015,0.1905 -0.015,0.2835 0,0.17625 0.045,0.28425 0.13725,0.324 0.09,0.039 0.36675,0.0743 0.828,0.10725 l -0.0368,0.21675 c -0.4635,-0.0172 -0.8655,-0.0263 -1.20375,-0.0263 -0.35625,0 -0.813,0.009 -1.36875,0.0263"
       inkscape:connector-curvature="0" />
    <path
       id="path4018"
       style="fill:none;stroke:#231f20;stroke-width:0.27134025;stroke-linecap:butt;stroke-linejoin:miter;stroke-miterlimit:2.61310005;stroke-opacity:1;stroke-dasharray:none"
       d="m 54.092604,180.18108 34.668,9.90825"
       inkscape:connector-curvature="0" />
    <path
       id="path4020"
       style="fill:#231f20;fill-opacity:1;fill-rule:evenodd;stroke:none"
       d="m 168.7106,238.84908 c -0.0697,0.17625 -0.1275,0.35475 -0.1785,0.53775 -0.588,0.45525 -1.19325,0.789 -1.8135,0.9975 -0.62025,0.2085 -1.30875,0.31125 -2.06475,0.31125 -1.437,0 -2.553,-0.39375 -3.34425,-1.18575 -0.79425,-0.78825 -1.188,-1.902 -1.188,-3.34125 0,-1.809 0.57,-3.28125 1.713,-4.41375 1.2285,-1.21875 2.70825,-1.82625 4.44675,-1.82625 0.5355,0 1.05525,0.0495 1.563,0.15 0.51,0.1005 0.99975,0.25125 1.47675,0.45225 -0.1905,0.70125 -0.324,1.422 -0.39675,2.1585 l -0.42675,0 c -0.015,-0.25125 -0.0233,-0.4425 -0.0233,-0.57525 l 0.0233,-0.6405 c -0.4875,-0.31425 -0.93,-0.528 -1.329,-0.64425 -0.39975,-0.11475 -0.8745,-0.1725 -1.425,-0.1725 -0.9165,0 -1.668,0.18075 -2.25375,0.54525 -0.58275,0.3615 -1.07025,0.96225 -1.464,1.7985 -0.39225,0.837 -0.588,1.79175 -0.588,2.85975 0,1.29075 0.3315,2.286 0.99525,2.9835 0.66,0.70125 1.56675,1.05075 2.71575,1.05075 0.54225,0 1.065,-0.078 1.5675,-0.23625 0.4995,-0.15525 1.1055,-0.4575 1.81575,-0.897 l 0.1785,0.0877"
       inkscape:connector-curvature="0" />
    <path
       id="path4022"
       style="fill:#231f20;fill-opacity:1;fill-rule:evenodd;stroke:none"
       d="m 169.2986,243.53883 0,-0.15225 c 1.08975,-1.10775 1.8075,-1.95075 2.157,-2.52675 0.26025,-0.4275 0.38925,-0.82275 0.38925,-1.1865 0,-0.28575 -0.0743,-0.507 -0.2235,-0.66225 -0.14925,-0.15375 -0.354,-0.23175 -0.61125,-0.23175 -0.21375,0 -0.40575,0.0615 -0.57825,0.18225 -0.171,0.1215 -0.34125,0.342 -0.5115,0.66075 l -0.17325,-0.081 0.46125,-0.8865 c 0.159,-0.11775 0.3225,-0.20625 0.492,-0.26325 0.1695,-0.0585 0.34275,-0.087 0.519,-0.087 0.3855,0 0.69225,0.11175 0.918,0.33525 0.228,0.2235 0.3405,0.52275 0.3405,0.89775 0,0.1755 -0.0225,0.342 -0.069,0.50325 -0.0465,0.1605 -0.132,0.34275 -0.2565,0.546 -0.12375,0.204 -0.35475,0.49125 -0.693,0.861 l -1.43925,1.527 0,0.048 1.1265,0 c 0.456,0 0.87975,-0.015 1.26825,-0.048 l 0.042,0.048 c -0.0225,0.0735 -0.063,0.246 -0.1215,0.516 -0.51825,-0.0172 -1.0545,-0.0263 -1.608,-0.0263 -0.49425,0 -0.96975,0.009 -1.42875,0.0263"
       inkscape:connector-curvature="0" />
    <path
       id="path4024"
       style="fill:none;stroke:#231f20;stroke-width:0.27134025;stroke-linecap:butt;stroke-linejoin:miter;stroke-miterlimit:2.61310005;stroke-opacity:1;stroke-dasharray:none"
       d="m 173.77835,236.31258 34.66725,9.9045"
       inkscape:connector-curvature="0" />
    <path
       id="path4026"
       style="fill:#231f20;fill-opacity:1;fill-rule:evenodd;stroke:none"
       d="m 401.89085,129.89358 c -0.0697,0.18 -0.1275,0.3525 -0.1785,0.54 -0.588,0.45 -1.19325,0.7875 -1.8135,0.9975 -0.621,0.21 -1.3095,0.3075 -2.0655,0.3075 -1.437,0 -2.55225,-0.39 -3.3435,-1.185 -0.79425,-0.7875 -1.18875,-1.8975 -1.18875,-3.3375 0,-1.8075 0.57,-3.285 1.71375,-4.4175 1.2285,-1.215 2.70825,-1.8225 4.44675,-1.8225 0.5355,0 1.05525,0.045 1.56225,0.15 0.51075,0.0975 1.0005,0.2475 1.4775,0.45 -0.1905,0.6975 -0.324,1.425 -0.39675,2.16 l -0.42675,0 c -0.0157,-0.255 -0.0232,-0.4425 -0.0232,-0.5775 l 0.0232,-0.6375 c -0.4875,-0.315 -0.93,-0.5325 -1.32975,-0.645 -0.39975,-0.12 -0.87375,-0.1725 -1.42425,-0.1725 -0.91725,0 -1.668,0.18 -2.25375,0.54 -0.58275,0.3675 -1.07025,0.9675 -1.464,1.8 -0.39225,0.84 -0.588,1.7925 -0.588,2.865 0,1.29 0.33075,2.28 0.9945,2.9775 0.66075,0.705 1.5675,1.0575 2.71575,1.0575 0.543,0 1.065,-0.0825 1.5675,-0.24 0.50025,-0.1575 1.1055,-0.4575 1.8165,-0.9 l 0.1785,0.09"
       inkscape:connector-curvature="0" />
    <path
       id="path4028"
       style="fill:#231f20;fill-opacity:1;fill-rule:evenodd;stroke:none"
       d="m 402.7076,133.23858 0.183,0.03 c -0.021,0.1575 -0.0322,0.27 -0.0322,0.3525 0,0.225 0.0825,0.405 0.24975,0.5475 0.16725,0.135 0.39075,0.21 0.66975,0.21 0.3525,0 0.65325,-0.1425 0.9,-0.42 0.24675,-0.285 0.36975,-0.645 0.36975,-1.08 0,-0.33 -0.0892,-0.585 -0.26925,-0.7575 -0.1785,-0.1725 -0.43425,-0.2625 -0.765,-0.2625 -0.16875,0 -0.36375,0.03 -0.585,0.0975 l -0.033,-0.03 0.13575,-0.375 c 0.186,0.0225 0.30675,0.0375 0.36075,0.0375 0.1935,0 0.384,-0.0525 0.573,-0.1575 0.1875,-0.0975 0.333,-0.2325 0.43575,-0.3975 0.10275,-0.1725 0.1545,-0.345 0.1545,-0.525 0,-0.2175 -0.0682,-0.39 -0.20175,-0.525 -0.13575,-0.1275 -0.3225,-0.195 -0.561,-0.195 -0.18525,0 -0.34875,0.0375 -0.4905,0.12 -0.141,0.0825 -0.3045,0.255 -0.49125,0.51 l -0.15075,-0.0975 c 0.16425,-0.2625 0.309,-0.51 0.43425,-0.7425 0.15975,-0.075 0.31275,-0.135 0.4605,-0.1725 0.15,-0.0375 0.2925,-0.06 0.4305,-0.06 0.36525,0 0.6465,0.0975 0.84675,0.2775 0.198,0.18 0.29775,0.42 0.29775,0.7125 0,0.15 -0.033,0.3 -0.096,0.45 -0.0638,0.1425 -0.14925,0.27 -0.25575,0.3675 -0.10725,0.105 -0.34275,0.2625 -0.70875,0.48 0.33675,0.09 0.56925,0.1725 0.69975,0.2625 0.129,0.09 0.23475,0.2175 0.31425,0.3825 0.0802,0.165 0.11925,0.345 0.11925,0.5475 0,0.3075 -0.0892,0.6075 -0.27,0.8925 -0.18,0.285 -0.43275,0.51 -0.7545,0.6825 -0.3225,0.1725 -0.67425,0.255 -1.0545,0.255 -0.2085,0 -0.39975,-0.0225 -0.5715,-0.075 -0.174,-0.0525 -0.35925,-0.1425 -0.558,-0.27 0.0855,-0.3675 0.1575,-0.72 0.21375,-1.0725"
       inkscape:connector-curvature="0" />
    <path
       id="path4030"
       style="fill:none;stroke:#231f20;stroke-width:0.27134025;stroke-linecap:butt;stroke-linejoin:miter;stroke-miterlimit:2.61310005;stroke-opacity:1;stroke-dasharray:none"
       d="m 391.68785,131.89608 -26.4135,17.3325"
       inkscape:connector-curvature="0" />
    <path
       id="path4032"
       style="fill:none;stroke:#231f20;stroke-width:0.27134025;stroke-linecap:butt;stroke-linejoin:miter;stroke-miterlimit:2.61310005;stroke-opacity:1;stroke-dasharray:none"
       d="m 86.611854,76.013576 -11.0865,-5.5425"
       inkscape:connector-curvature="0" />
    <path
       id="path4034"
       style="fill:#231f20;fill-opacity:1;fill-rule:evenodd;stroke:none"
       d="m 89.508354,77.461076 -3.669,0 1.46775,-2.9325 2.20125,2.9325"
       inkscape:connector-curvature="0" />
    <path
       id="path4036"
       style="fill:#231f20;fill-opacity:1;fill-rule:evenodd;stroke:none"
       d="m 72.628104,69.023576 2.202,2.9325 1.46775,-2.9325 -3.66975,0"
       inkscape:connector-curvature="0" />
    <path
       id="path4038"
       style="fill:#231f20;fill-opacity:1;fill-rule:evenodd;stroke:none"
       d="m 83.884854,66.398576 c -0.5775,-0.2175 -0.9675,-0.45 -1.16325,-0.69 -0.19575,-0.2475 -0.294,-0.54 -0.294,-0.8775 0,-0.4575 0.19125,-0.84 0.57525,-1.1475 0.5205,-0.4125 1.20375,-0.6225 2.05275,-0.6225 0.50475,0 0.96,0.06 1.362,0.18 0.40125,0.12 0.67575,0.27 0.82125,0.4575 0.14325,0.1875 0.216,0.3675 0.216,0.5325 0,0.1575 -0.063,0.2925 -0.19125,0.42 -0.12825,0.1275 -0.27375,0.1875 -0.44175,0.1875 -0.2685,0 -0.495,-0.18 -0.6735,-0.525 -0.17775,-0.3525 -0.32625,-0.57 -0.444,-0.645 -0.19125,-0.1275 -0.4275,-0.195 -0.7065,-0.195 -0.4425,0 -0.7935,0.1275 -1.05225,0.39 -0.26175,0.255 -0.39225,0.6075 -0.39225,1.05 0,0.4275 0.108,0.7575 0.324,0.99 0.216,0.2325 0.513,0.345 0.89175,0.345 0.12825,0 0.26625,-0.007 0.41925,-0.03 0.23925,-0.03 0.42975,-0.0525 0.5655,-0.0525 0.2115,0 0.35475,0.03 0.43275,0.0825 0.075,0.0525 0.1125,0.12 0.1125,0.195 0,0.0675 -0.0322,0.1275 -0.0952,0.165 -0.0877,0.0675 -0.24375,0.0975 -0.462,0.0975 -0.0503,0 -0.13125,-0.007 -0.24375,-0.0225 -0.2565,-0.0375 -0.465,-0.0525 -0.62625,-0.0525 -0.41175,0 -0.75075,0.135 -1.01175,0.405 -0.264,0.27 -0.39525,0.6225 -0.39525,1.065 0,0.5175 0.13575,0.9225 0.4095,1.2075 0.2715,0.285 0.62325,0.4275 1.056,0.4275 0.34875,0 0.633,-0.105 0.85425,-0.315 0.1275,-0.12 0.26325,-0.375 0.40425,-0.765 0.093,-0.255 0.17025,-0.4125 0.22875,-0.4725 0.15825,-0.1575 0.324,-0.2325 0.4995,-0.2325 0.20625,0 0.38175,0.0675 0.52275,0.21 0.14325,0.1425 0.21375,0.3225 0.21375,0.5325 0,0.3375 -0.1935,0.6525 -0.5805,0.9375 -0.5655,0.405 -1.284,0.6075 -2.1585,0.6075 -0.92175,0 -1.63275,-0.2025 -2.13,-0.6075 -0.498,-0.4125 -0.74625,-0.8625 -0.74625,-1.3575 0,-0.3525 0.1335,-0.69 0.402,-1.005 0.26625,-0.3225 0.7485,-0.615 1.4445,-0.87"
       inkscape:connector-curvature="0" />
  </g>
</svg>
