<?xml version="1.0" encoding="UTF-8" standalone="no"?>
<!-- Created with Inkscape (http://www.inkscape.org/) -->

<svg
   xmlns:dc="http://purl.org/dc/elements/1.1/"
   xmlns:cc="http://creativecommons.org/ns#"
   xmlns:rdf="http://www.w3.org/1999/02/22-rdf-syntax-ns#"
   xmlns:svg="http://www.w3.org/2000/svg"
   xmlns="http://www.w3.org/2000/svg"
   xmlns:sodipodi="http://sodipodi.sourceforge.net/DTD/sodipodi-0.dtd"
   xmlns:inkscape="http://www.inkscape.org/namespaces/inkscape"
   width="744.09448819"
   height="1052.3622047"
   id="svg2"
   version="1.1"
   inkscape:version="0.48.2 r9819"
   sodipodi:docname="contact_processing.eps">
  <defs
     id="defs4">
    <clipPath
       id="clipPath4410"
       clipPathUnits="userSpaceOnUse">
      <path
         id="path4412"
         clip-rule="evenodd"
         d="m 7267.37,2747.97 -196.89,640.14 -498.85,649.29 -931.52,148.31 26.14,-241.8 775.03,-122.56 486.26,-602.85 104.56,-490.13 235.27,19.6 z" />
    </clipPath>
    <clipPath
       id="clipPath4308"
       clipPathUnits="userSpaceOnUse">
      <path
         id="path4310"
         clip-rule="evenodd"
         d="m 8357.81,3638.35 -855.45,243.06 -880.06,779.8 -323.72,803.62 229.01,73.49 301.41,-728.77 854.73,-724.28 724.27,-211.43 -50.19,-235.49 z" />
    </clipPath>
    <clipPath
       id="clipPath4152"
       clipPathUnits="userSpaceOnUse">
      <path
         id="path4154"
         clip-rule="evenodd"
         d="m 4279.45,2745.78 -143.78,568.56 -614.3,646.98 -869.18,222.2 -431.32,-45.75 26.14,-228.73 431.32,32.67 745.01,-189.51 516.28,-535.89 104.56,-490.13 235.27,19.6 z" />
    </clipPath>
    <clipPath
       id="clipPath4050"
       clipPathUnits="userSpaceOnUse">
      <path
         id="path4052"
         clip-rule="evenodd"
         d="m 5369.89,3636.16 -855.45,243.06 -880.06,779.8 -323.72,803.62 229.01,73.49 301.4,-728.77 854.73,-724.28 724.28,-211.43 -50.19,-235.49 z" />
    </clipPath>
  </defs>
  <sodipodi:namedview
     id="base"
     pagecolor="#ffffff"
     bordercolor="#666666"
     borderopacity="1.0"
     inkscape:pageopacity="0.0"
     inkscape:pageshadow="2"
     inkscape:zoom="0.49497475"
     inkscape:cx="1433.1551"
     inkscape:cy="633.40651"
     inkscape:document-units="px"
     inkscape:current-layer="layer1"
     showgrid="false"
     inkscape:window-width="1920"
     inkscape:window-height="1021"
     inkscape:window-x="0"
     inkscape:window-y="27"
     inkscape:window-maximized="1" />
  <metadata
     id="metadata7">
    <rdf:RDF>
      <cc:Work
         rdf:about="">
        <dc:format>image/svg+xml</dc:format>
        <dc:type
           rdf:resource="http://purl.org/dc/dcmitype/StillImage" />
        <dc:title></dc:title>
      </cc:Work>
    </rdf:RDF>
  </metadata>
  <g
     inkscape:label="Layer 1"
     inkscape:groupmode="layer"
     id="layer1">
    <g
       id="g4046"
       transform="matrix(0.075,0,0,-0.075,-140.9742,436.87322)">
      <g
         clip-path="url(#clipPath4050)"
         id="g4048">
        <path
           id="path4054"
           style="fill:none;stroke:#231f20;stroke-width:1.21429002;stroke-linecap:butt;stroke-linejoin:miter;stroke-miterlimit:2.61310005;stroke-opacity:1;stroke-dasharray:none"
           d="M 2477.23,4035.64 3897.61,6495.8"
           inkscape:connector-curvature="0" />
        <path
           id="path4056"
           style="fill:none;stroke:#231f20;stroke-width:1.21429002;stroke-linecap:butt;stroke-linejoin:miter;stroke-miterlimit:2.61310005;stroke-opacity:1;stroke-dasharray:none"
           d="M 2529.81,4005.28 3950.18,6465.45"
           inkscape:connector-curvature="0" />
        <path
           id="path4058"
           style="fill:none;stroke:#231f20;stroke-width:1.21429002;stroke-linecap:butt;stroke-linejoin:miter;stroke-miterlimit:2.61310005;stroke-opacity:1;stroke-dasharray:none"
           d="M 2582.39,3974.93 4002.77,6435.09"
           inkscape:connector-curvature="0" />
        <path
           id="path4060"
           style="fill:none;stroke:#231f20;stroke-width:1.21429002;stroke-linecap:butt;stroke-linejoin:miter;stroke-miterlimit:2.61310005;stroke-opacity:1;stroke-dasharray:none"
           d="M 2634.97,3944.57 4055.34,6404.73"
           inkscape:connector-curvature="0" />
        <path
           id="path4062"
           style="fill:none;stroke:#231f20;stroke-width:1.21429002;stroke-linecap:butt;stroke-linejoin:miter;stroke-miterlimit:2.61310005;stroke-opacity:1;stroke-dasharray:none"
           d="M 2687.55,3914.21 4107.93,6374.38"
           inkscape:connector-curvature="0" />
        <path
           id="path4064"
           style="fill:none;stroke:#231f20;stroke-width:1.21429002;stroke-linecap:butt;stroke-linejoin:miter;stroke-miterlimit:2.61310005;stroke-opacity:1;stroke-dasharray:none"
           d="M 2740.13,3883.86 4160.5,6344.02"
           inkscape:connector-curvature="0" />
        <path
           id="path4066"
           style="fill:none;stroke:#231f20;stroke-width:1.21429002;stroke-linecap:butt;stroke-linejoin:miter;stroke-miterlimit:2.61310005;stroke-opacity:1;stroke-dasharray:none"
           d="M 2792.71,3853.5 4213.09,6313.66"
           inkscape:connector-curvature="0" />
        <path
           id="path4068"
           style="fill:none;stroke:#231f20;stroke-width:1.21429002;stroke-linecap:butt;stroke-linejoin:miter;stroke-miterlimit:2.61310005;stroke-opacity:1;stroke-dasharray:none"
           d="M 2845.29,3823.14 4265.66,6283.3"
           inkscape:connector-curvature="0" />
        <path
           id="path4070"
           style="fill:none;stroke:#231f20;stroke-width:1.21429002;stroke-linecap:butt;stroke-linejoin:miter;stroke-miterlimit:2.61310005;stroke-opacity:1;stroke-dasharray:none"
           d="M 2897.87,3792.78 4318.25,6252.95"
           inkscape:connector-curvature="0" />
        <path
           id="path4072"
           style="fill:none;stroke:#231f20;stroke-width:1.21429002;stroke-linecap:butt;stroke-linejoin:miter;stroke-miterlimit:2.61310005;stroke-opacity:1;stroke-dasharray:none"
           d="M 2950.45,3762.43 4370.82,6222.59"
           inkscape:connector-curvature="0" />
        <path
           id="path4074"
           style="fill:none;stroke:#231f20;stroke-width:1.21429002;stroke-linecap:butt;stroke-linejoin:miter;stroke-miterlimit:2.61310005;stroke-opacity:1;stroke-dasharray:none"
           d="M 3003.03,3732.07 4423.41,6192.23"
           inkscape:connector-curvature="0" />
        <path
           id="path4076"
           style="fill:none;stroke:#231f20;stroke-width:1.21429002;stroke-linecap:butt;stroke-linejoin:miter;stroke-miterlimit:2.61310005;stroke-opacity:1;stroke-dasharray:none"
           d="M 3055.61,3701.71 4475.98,6161.88"
           inkscape:connector-curvature="0" />
        <path
           id="path4078"
           style="fill:none;stroke:#231f20;stroke-width:1.21429002;stroke-linecap:butt;stroke-linejoin:miter;stroke-miterlimit:2.61310005;stroke-opacity:1;stroke-dasharray:none"
           d="M 3108.19,3671.36 4528.57,6131.52"
           inkscape:connector-curvature="0" />
        <path
           id="path4080"
           style="fill:none;stroke:#231f20;stroke-width:1.21429002;stroke-linecap:butt;stroke-linejoin:miter;stroke-miterlimit:2.61310005;stroke-opacity:1;stroke-dasharray:none"
           d="M 3160.77,3641 4581.14,6101.16"
           inkscape:connector-curvature="0" />
        <path
           id="path4082"
           style="fill:none;stroke:#231f20;stroke-width:1.21429002;stroke-linecap:butt;stroke-linejoin:miter;stroke-miterlimit:2.61310005;stroke-opacity:1;stroke-dasharray:none"
           d="M 3213.35,3610.64 4633.73,6070.8"
           inkscape:connector-curvature="0" />
        <path
           id="path4084"
           style="fill:none;stroke:#231f20;stroke-width:1.21429002;stroke-linecap:butt;stroke-linejoin:miter;stroke-miterlimit:2.61310005;stroke-opacity:1;stroke-dasharray:none"
           d="M 3265.93,3580.28 4686.3,6040.45"
           inkscape:connector-curvature="0" />
        <path
           id="path4086"
           style="fill:none;stroke:#231f20;stroke-width:1.21429002;stroke-linecap:butt;stroke-linejoin:miter;stroke-miterlimit:2.61310005;stroke-opacity:1;stroke-dasharray:none"
           d="M 3318.51,3549.93 4738.89,6010.09"
           inkscape:connector-curvature="0" />
        <path
           id="path4088"
           style="fill:none;stroke:#231f20;stroke-width:1.21429002;stroke-linecap:butt;stroke-linejoin:miter;stroke-miterlimit:2.61310005;stroke-opacity:1;stroke-dasharray:none"
           d="M 3371.09,3519.57 4791.46,5979.73"
           inkscape:connector-curvature="0" />
        <path
           id="path4090"
           style="fill:none;stroke:#231f20;stroke-width:1.21429002;stroke-linecap:butt;stroke-linejoin:miter;stroke-miterlimit:2.61310005;stroke-opacity:1;stroke-dasharray:none"
           d="M 3423.67,3489.21 4844.05,5949.38"
           inkscape:connector-curvature="0" />
        <path
           id="path4092"
           style="fill:none;stroke:#231f20;stroke-width:1.21429002;stroke-linecap:butt;stroke-linejoin:miter;stroke-miterlimit:2.61310005;stroke-opacity:1;stroke-dasharray:none"
           d="M 3476.25,3458.86 4896.63,5919.02"
           inkscape:connector-curvature="0" />
        <path
           id="path4094"
           style="fill:none;stroke:#231f20;stroke-width:1.21429002;stroke-linecap:butt;stroke-linejoin:miter;stroke-miterlimit:2.61310005;stroke-opacity:1;stroke-dasharray:none"
           d="M 3528.83,3428.5 4949.21,5888.66"
           inkscape:connector-curvature="0" />
        <path
           id="path4096"
           style="fill:none;stroke:#231f20;stroke-width:1.21429002;stroke-linecap:butt;stroke-linejoin:miter;stroke-miterlimit:2.61310005;stroke-opacity:1;stroke-dasharray:none"
           d="M 3581.41,3398.14 5001.79,5858.3"
           inkscape:connector-curvature="0" />
        <path
           id="path4098"
           style="fill:none;stroke:#231f20;stroke-width:1.21429002;stroke-linecap:butt;stroke-linejoin:miter;stroke-miterlimit:2.61310005;stroke-opacity:1;stroke-dasharray:none"
           d="M 3633.99,3367.78 5054.37,5827.95"
           inkscape:connector-curvature="0" />
        <path
           id="path4100"
           style="fill:none;stroke:#231f20;stroke-width:1.21429002;stroke-linecap:butt;stroke-linejoin:miter;stroke-miterlimit:2.61310005;stroke-opacity:1;stroke-dasharray:none"
           d="M 3686.57,3337.43 5106.95,5797.59"
           inkscape:connector-curvature="0" />
        <path
           id="path4102"
           style="fill:none;stroke:#231f20;stroke-width:1.21429002;stroke-linecap:butt;stroke-linejoin:miter;stroke-miterlimit:2.61310005;stroke-opacity:1;stroke-dasharray:none"
           d="M 3739.15,3307.07 5159.53,5767.23"
           inkscape:connector-curvature="0" />
        <path
           id="path4104"
           style="fill:none;stroke:#231f20;stroke-width:1.21429002;stroke-linecap:butt;stroke-linejoin:miter;stroke-miterlimit:2.61310005;stroke-opacity:1;stroke-dasharray:none"
           d="M 3791.73,3276.71 5212.11,5736.88"
           inkscape:connector-curvature="0" />
        <path
           id="path4106"
           style="fill:none;stroke:#231f20;stroke-width:1.21429002;stroke-linecap:butt;stroke-linejoin:miter;stroke-miterlimit:2.61310005;stroke-opacity:1;stroke-dasharray:none"
           d="M 3844.31,3246.36 5264.69,5706.52"
           inkscape:connector-curvature="0" />
        <path
           id="path4108"
           style="fill:none;stroke:#231f20;stroke-width:1.21429002;stroke-linecap:butt;stroke-linejoin:miter;stroke-miterlimit:2.61310005;stroke-opacity:1;stroke-dasharray:none"
           d="M 3896.89,3216 5317.27,5676.16"
           inkscape:connector-curvature="0" />
        <path
           id="path4110"
           style="fill:none;stroke:#231f20;stroke-width:1.21429002;stroke-linecap:butt;stroke-linejoin:miter;stroke-miterlimit:2.61310005;stroke-opacity:1;stroke-dasharray:none"
           d="M 3949.47,3185.64 5369.85,5645.8"
           inkscape:connector-curvature="0" />
        <path
           id="path4112"
           style="fill:none;stroke:#231f20;stroke-width:1.21429002;stroke-linecap:butt;stroke-linejoin:miter;stroke-miterlimit:2.61310005;stroke-opacity:1;stroke-dasharray:none"
           d="M 4002.05,3155.28 5422.43,5615.45"
           inkscape:connector-curvature="0" />
        <path
           id="path4114"
           style="fill:none;stroke:#231f20;stroke-width:1.21429002;stroke-linecap:butt;stroke-linejoin:miter;stroke-miterlimit:2.61310005;stroke-opacity:1;stroke-dasharray:none"
           d="M 4054.63,3124.93 5475.01,5585.09"
           inkscape:connector-curvature="0" />
        <path
           id="path4116"
           style="fill:none;stroke:#231f20;stroke-width:1.21429002;stroke-linecap:butt;stroke-linejoin:miter;stroke-miterlimit:2.61310005;stroke-opacity:1;stroke-dasharray:none"
           d="M 4107.21,3094.57 5527.59,5554.73"
           inkscape:connector-curvature="0" />
        <path
           id="path4118"
           style="fill:none;stroke:#231f20;stroke-width:1.21429002;stroke-linecap:butt;stroke-linejoin:miter;stroke-miterlimit:2.61310005;stroke-opacity:1;stroke-dasharray:none"
           d="M 4159.79,3064.21 5580.17,5524.38"
           inkscape:connector-curvature="0" />
        <path
           id="path4120"
           style="fill:none;stroke:#231f20;stroke-width:1.21429002;stroke-linecap:butt;stroke-linejoin:miter;stroke-miterlimit:2.61310005;stroke-opacity:1;stroke-dasharray:none"
           d="M 4212.37,3033.86 5632.75,5494.02"
           inkscape:connector-curvature="0" />
        <path
           id="path4122"
           style="fill:none;stroke:#231f20;stroke-width:1.21429002;stroke-linecap:butt;stroke-linejoin:miter;stroke-miterlimit:2.61310005;stroke-opacity:1;stroke-dasharray:none"
           d="M 4264.95,3003.5 5685.33,5463.66"
           inkscape:connector-curvature="0" />
        <path
           id="path4124"
           style="fill:none;stroke:#231f20;stroke-width:1.21429002;stroke-linecap:butt;stroke-linejoin:miter;stroke-miterlimit:2.61310005;stroke-opacity:1;stroke-dasharray:none"
           d="M 4317.53,2973.14 5737.91,5433.3"
           inkscape:connector-curvature="0" />
        <path
           id="path4126"
           style="fill:none;stroke:#231f20;stroke-width:1.21429002;stroke-linecap:butt;stroke-linejoin:miter;stroke-miterlimit:2.61310005;stroke-opacity:1;stroke-dasharray:none"
           d="M 4370.11,2942.78 5790.49,5402.95"
           inkscape:connector-curvature="0" />
        <path
           id="path4128"
           style="fill:none;stroke:#231f20;stroke-width:1.21429002;stroke-linecap:butt;stroke-linejoin:miter;stroke-miterlimit:2.61310005;stroke-opacity:1;stroke-dasharray:none"
           d="M 4422.69,2912.43 5843.07,5372.59"
           inkscape:connector-curvature="0" />
        <path
           id="path4130"
           style="fill:none;stroke:#231f20;stroke-width:1.21429002;stroke-linecap:butt;stroke-linejoin:miter;stroke-miterlimit:2.61310005;stroke-opacity:1;stroke-dasharray:none"
           d="M 4475.27,2882.07 5895.65,5342.23"
           inkscape:connector-curvature="0" />
        <path
           id="path4132"
           style="fill:none;stroke:#231f20;stroke-width:1.21429002;stroke-linecap:butt;stroke-linejoin:miter;stroke-miterlimit:2.61310005;stroke-opacity:1;stroke-dasharray:none"
           d="M 4527.85,2851.71 5948.23,5311.88"
           inkscape:connector-curvature="0" />
        <path
           id="path4134"
           style="fill:none;stroke:#231f20;stroke-width:1.21429002;stroke-linecap:butt;stroke-linejoin:miter;stroke-miterlimit:2.61310005;stroke-opacity:1;stroke-dasharray:none"
           d="M 4580.43,2821.36 6000.81,5281.52"
           inkscape:connector-curvature="0" />
        <path
           id="path4136"
           style="fill:none;stroke:#231f20;stroke-width:1.21429002;stroke-linecap:butt;stroke-linejoin:miter;stroke-miterlimit:2.61310005;stroke-opacity:1;stroke-dasharray:none"
           d="M 4633.01,2791 6053.39,5251.16"
           inkscape:connector-curvature="0" />
        <path
           id="path4138"
           style="fill:none;stroke:#231f20;stroke-width:1.21429002;stroke-linecap:butt;stroke-linejoin:miter;stroke-miterlimit:2.61310005;stroke-opacity:1;stroke-dasharray:none"
           d="M 4685.59,2760.64 6105.97,5220.8"
           inkscape:connector-curvature="0" />
        <path
           id="path4140"
           style="fill:none;stroke:#231f20;stroke-width:1.21429002;stroke-linecap:butt;stroke-linejoin:miter;stroke-miterlimit:2.61310005;stroke-opacity:1;stroke-dasharray:none"
           d="M 4738.17,2730.28 6158.55,5190.45"
           inkscape:connector-curvature="0" />
        <path
           id="path4142"
           style="fill:none;stroke:#231f20;stroke-width:1.21429002;stroke-linecap:butt;stroke-linejoin:miter;stroke-miterlimit:2.61310005;stroke-opacity:1;stroke-dasharray:none"
           d="M 4790.75,2699.93 6211.13,5160.09"
           inkscape:connector-curvature="0" />
        <path
           id="path4144"
           style="fill:none;stroke:#231f20;stroke-width:1.21429002;stroke-linecap:butt;stroke-linejoin:miter;stroke-miterlimit:2.61310005;stroke-opacity:1;stroke-dasharray:none"
           d="M 4843.33,2669.57 6263.71,5129.73"
           inkscape:connector-curvature="0" />
        <path
           id="path4146"
           style="fill:none;stroke:#231f20;stroke-width:1.21429002;stroke-linecap:butt;stroke-linejoin:miter;stroke-miterlimit:2.61310005;stroke-opacity:1;stroke-dasharray:none"
           d="M 4895.91,2639.21 6316.29,5099.38"
           inkscape:connector-curvature="0" />
      </g>
    </g>
    <g
       id="g4148"
       transform="matrix(0.075,0,0,-0.075,-140.9742,436.87322)">
      <g
         clip-path="url(#clipPath4152)"
         id="g4150">
        <path
           id="path4156"
           style="fill:none;stroke:#231f20;stroke-width:1.21429002;stroke-linecap:butt;stroke-linejoin:miter;stroke-miterlimit:2.61310005;stroke-opacity:1;stroke-dasharray:none"
           d="M 1556.98,3864.04 3742.39,5125.79"
           inkscape:connector-curvature="0" />
        <path
           id="path4158"
           style="fill:none;stroke:#231f20;stroke-width:1.21429002;stroke-linecap:butt;stroke-linejoin:miter;stroke-miterlimit:2.61310005;stroke-opacity:1;stroke-dasharray:none"
           d="M 1587.34,3811.45 3772.75,5073.2"
           inkscape:connector-curvature="0" />
        <path
           id="path4160"
           style="fill:none;stroke:#231f20;stroke-width:1.21429002;stroke-linecap:butt;stroke-linejoin:miter;stroke-miterlimit:2.61310005;stroke-opacity:1;stroke-dasharray:none"
           d="M 1617.69,3758.88 3803.11,5020.63"
           inkscape:connector-curvature="0" />
        <path
           id="path4162"
           style="fill:none;stroke:#231f20;stroke-width:1.21429002;stroke-linecap:butt;stroke-linejoin:miter;stroke-miterlimit:2.61310005;stroke-opacity:1;stroke-dasharray:none"
           d="M 1648.05,3706.29 3833.46,4968.04"
           inkscape:connector-curvature="0" />
        <path
           id="path4164"
           style="fill:none;stroke:#231f20;stroke-width:1.21429002;stroke-linecap:butt;stroke-linejoin:miter;stroke-miterlimit:2.61310005;stroke-opacity:1;stroke-dasharray:none"
           d="M 1678.41,3653.71 3863.82,4915.46"
           inkscape:connector-curvature="0" />
        <path
           id="path4166"
           style="fill:none;stroke:#231f20;stroke-width:1.21429002;stroke-linecap:butt;stroke-linejoin:miter;stroke-miterlimit:2.61310005;stroke-opacity:1;stroke-dasharray:none"
           d="M 1708.76,3601.13 3894.18,4862.88"
           inkscape:connector-curvature="0" />
        <path
           id="path4168"
           style="fill:none;stroke:#231f20;stroke-width:1.21429002;stroke-linecap:butt;stroke-linejoin:miter;stroke-miterlimit:2.61310005;stroke-opacity:1;stroke-dasharray:none"
           d="M 1739.12,3548.55 3924.54,4810.3"
           inkscape:connector-curvature="0" />
        <path
           id="path4170"
           style="fill:none;stroke:#231f20;stroke-width:1.21429002;stroke-linecap:butt;stroke-linejoin:miter;stroke-miterlimit:2.61310005;stroke-opacity:1;stroke-dasharray:none"
           d="M 1769.48,3495.97 3954.89,4757.72"
           inkscape:connector-curvature="0" />
        <path
           id="path4172"
           style="fill:none;stroke:#231f20;stroke-width:1.21429002;stroke-linecap:butt;stroke-linejoin:miter;stroke-miterlimit:2.61310005;stroke-opacity:1;stroke-dasharray:none"
           d="M 1799.84,3443.39 3985.25,4705.14"
           inkscape:connector-curvature="0" />
        <path
           id="path4174"
           style="fill:none;stroke:#231f20;stroke-width:1.21429002;stroke-linecap:butt;stroke-linejoin:miter;stroke-miterlimit:2.61310005;stroke-opacity:1;stroke-dasharray:none"
           d="M 1830.19,3390.81 4015.61,4652.56"
           inkscape:connector-curvature="0" />
        <path
           id="path4176"
           style="fill:none;stroke:#231f20;stroke-width:1.21429002;stroke-linecap:butt;stroke-linejoin:miter;stroke-miterlimit:2.61310005;stroke-opacity:1;stroke-dasharray:none"
           d="M 1860.55,3338.23 4045.96,4599.98"
           inkscape:connector-curvature="0" />
        <path
           id="path4178"
           style="fill:none;stroke:#231f20;stroke-width:1.21429002;stroke-linecap:butt;stroke-linejoin:miter;stroke-miterlimit:2.61310005;stroke-opacity:1;stroke-dasharray:none"
           d="M 1890.91,3285.65 4076.32,4547.4"
           inkscape:connector-curvature="0" />
        <path
           id="path4180"
           style="fill:none;stroke:#231f20;stroke-width:1.21429002;stroke-linecap:butt;stroke-linejoin:miter;stroke-miterlimit:2.61310005;stroke-opacity:1;stroke-dasharray:none"
           d="M 1921.26,3233.07 4106.68,4494.82"
           inkscape:connector-curvature="0" />
        <path
           id="path4182"
           style="fill:none;stroke:#231f20;stroke-width:1.21429002;stroke-linecap:butt;stroke-linejoin:miter;stroke-miterlimit:2.61310005;stroke-opacity:1;stroke-dasharray:none"
           d="M 1951.62,3180.49 4137.04,4442.24"
           inkscape:connector-curvature="0" />
        <path
           id="path4184"
           style="fill:none;stroke:#231f20;stroke-width:1.21429002;stroke-linecap:butt;stroke-linejoin:miter;stroke-miterlimit:2.61310005;stroke-opacity:1;stroke-dasharray:none"
           d="M 1981.98,3127.91 4167.39,4389.66"
           inkscape:connector-curvature="0" />
        <path
           id="path4186"
           style="fill:none;stroke:#231f20;stroke-width:1.21429002;stroke-linecap:butt;stroke-linejoin:miter;stroke-miterlimit:2.61310005;stroke-opacity:1;stroke-dasharray:none"
           d="M 2012.34,3075.33 4197.75,4337.08"
           inkscape:connector-curvature="0" />
        <path
           id="path4188"
           style="fill:none;stroke:#231f20;stroke-width:1.21429002;stroke-linecap:butt;stroke-linejoin:miter;stroke-miterlimit:2.61310005;stroke-opacity:1;stroke-dasharray:none"
           d="M 2042.69,3022.75 4228.11,4284.5"
           inkscape:connector-curvature="0" />
        <path
           id="path4190"
           style="fill:none;stroke:#231f20;stroke-width:1.21429002;stroke-linecap:butt;stroke-linejoin:miter;stroke-miterlimit:2.61310005;stroke-opacity:1;stroke-dasharray:none"
           d="M 2073.05,2970.17 4258.46,4231.92"
           inkscape:connector-curvature="0" />
        <path
           id="path4192"
           style="fill:none;stroke:#231f20;stroke-width:1.21429002;stroke-linecap:butt;stroke-linejoin:miter;stroke-miterlimit:2.61310005;stroke-opacity:1;stroke-dasharray:none"
           d="M 2103.41,2917.59 4288.82,4179.34"
           inkscape:connector-curvature="0" />
        <path
           id="path4194"
           style="fill:none;stroke:#231f20;stroke-width:1.21429002;stroke-linecap:butt;stroke-linejoin:miter;stroke-miterlimit:2.61310005;stroke-opacity:1;stroke-dasharray:none"
           d="M 2133.76,2865.01 4319.18,4126.76"
           inkscape:connector-curvature="0" />
        <path
           id="path4196"
           style="fill:none;stroke:#231f20;stroke-width:1.21429002;stroke-linecap:butt;stroke-linejoin:miter;stroke-miterlimit:2.61310005;stroke-opacity:1;stroke-dasharray:none"
           d="M 2164.12,2812.43 4349.54,4074.18"
           inkscape:connector-curvature="0" />
        <path
           id="path4198"
           style="fill:none;stroke:#231f20;stroke-width:1.21429002;stroke-linecap:butt;stroke-linejoin:miter;stroke-miterlimit:2.61310005;stroke-opacity:1;stroke-dasharray:none"
           d="M 2194.48,2759.85 4379.89,4021.6"
           inkscape:connector-curvature="0" />
        <path
           id="path4200"
           style="fill:none;stroke:#231f20;stroke-width:1.21429002;stroke-linecap:butt;stroke-linejoin:miter;stroke-miterlimit:2.61310005;stroke-opacity:1;stroke-dasharray:none"
           d="M 2224.84,2707.27 4410.25,3969.02"
           inkscape:connector-curvature="0" />
        <path
           id="path4202"
           style="fill:none;stroke:#231f20;stroke-width:1.21429002;stroke-linecap:butt;stroke-linejoin:miter;stroke-miterlimit:2.61310005;stroke-opacity:1;stroke-dasharray:none"
           d="M 2255.19,2654.69 4440.61,3916.44"
           inkscape:connector-curvature="0" />
        <path
           id="path4204"
           style="fill:none;stroke:#231f20;stroke-width:1.21429002;stroke-linecap:butt;stroke-linejoin:miter;stroke-miterlimit:2.61310005;stroke-opacity:1;stroke-dasharray:none"
           d="M 2285.55,2602.11 4470.96,3863.86"
           inkscape:connector-curvature="0" />
        <path
           id="path4206"
           style="fill:none;stroke:#231f20;stroke-width:1.21429002;stroke-linecap:butt;stroke-linejoin:miter;stroke-miterlimit:2.61310005;stroke-opacity:1;stroke-dasharray:none"
           d="M 2315.91,2549.53 4501.32,3811.28"
           inkscape:connector-curvature="0" />
        <path
           id="path4208"
           style="fill:none;stroke:#231f20;stroke-width:1.21429002;stroke-linecap:butt;stroke-linejoin:miter;stroke-miterlimit:2.61310005;stroke-opacity:1;stroke-dasharray:none"
           d="M 2346.26,2496.95 4531.68,3758.7"
           inkscape:connector-curvature="0" />
        <path
           id="path4210"
           style="fill:none;stroke:#231f20;stroke-width:1.21429002;stroke-linecap:butt;stroke-linejoin:miter;stroke-miterlimit:2.61310005;stroke-opacity:1;stroke-dasharray:none"
           d="M 2376.62,2444.37 4562.04,3706.12"
           inkscape:connector-curvature="0" />
        <path
           id="path4212"
           style="fill:none;stroke:#231f20;stroke-width:1.21429002;stroke-linecap:butt;stroke-linejoin:miter;stroke-miterlimit:2.61310005;stroke-opacity:1;stroke-dasharray:none"
           d="M 2406.98,2391.79 4592.39,3653.54"
           inkscape:connector-curvature="0" />
        <path
           id="path4214"
           style="fill:none;stroke:#231f20;stroke-width:1.21429002;stroke-linecap:butt;stroke-linejoin:miter;stroke-miterlimit:2.61310005;stroke-opacity:1;stroke-dasharray:none"
           d="M 2437.34,2339.21 4622.75,3600.96"
           inkscape:connector-curvature="0" />
        <path
           id="path4216"
           style="fill:none;stroke:#231f20;stroke-width:1.21429002;stroke-linecap:butt;stroke-linejoin:miter;stroke-miterlimit:2.61310005;stroke-opacity:1;stroke-dasharray:none"
           d="M 2467.69,2286.63 4653.11,3548.38"
           inkscape:connector-curvature="0" />
        <path
           id="path4218"
           style="fill:none;stroke:#231f20;stroke-width:1.21429002;stroke-linecap:butt;stroke-linejoin:miter;stroke-miterlimit:2.61310005;stroke-opacity:1;stroke-dasharray:none"
           d="M 2498.05,2234.05 4683.46,3495.8"
           inkscape:connector-curvature="0" />
        <path
           id="path4220"
           style="fill:none;stroke:#231f20;stroke-width:1.21429002;stroke-linecap:butt;stroke-linejoin:miter;stroke-miterlimit:2.61310005;stroke-opacity:1;stroke-dasharray:none"
           d="M 2528.41,2181.47 4713.82,3443.22"
           inkscape:connector-curvature="0" />
        <path
           id="path4222"
           style="fill:none;stroke:#231f20;stroke-width:1.21429002;stroke-linecap:butt;stroke-linejoin:miter;stroke-miterlimit:2.61310005;stroke-opacity:1;stroke-dasharray:none"
           d="M 2558.76,2128.89 4744.18,3390.64"
           inkscape:connector-curvature="0" />
        <path
           id="path4224"
           style="fill:none;stroke:#231f20;stroke-width:1.21429002;stroke-linecap:butt;stroke-linejoin:miter;stroke-miterlimit:2.61310005;stroke-opacity:1;stroke-dasharray:none"
           d="M 2589.12,2076.31 4774.54,3338.06"
           inkscape:connector-curvature="0" />
        <path
           id="path4226"
           style="fill:none;stroke:#231f20;stroke-width:1.21429002;stroke-linecap:butt;stroke-linejoin:miter;stroke-miterlimit:2.61310005;stroke-opacity:1;stroke-dasharray:none"
           d="M 2619.48,2023.73 4804.89,3285.48"
           inkscape:connector-curvature="0" />
        <path
           id="path4228"
           style="fill:none;stroke:#231f20;stroke-width:1.21429002;stroke-linecap:butt;stroke-linejoin:miter;stroke-miterlimit:2.61310005;stroke-opacity:1;stroke-dasharray:none"
           d="M 2649.84,1971.15 4835.25,3232.9"
           inkscape:connector-curvature="0" />
        <path
           id="path4230"
           style="fill:none;stroke:#231f20;stroke-width:1.21429002;stroke-linecap:butt;stroke-linejoin:miter;stroke-miterlimit:2.61310005;stroke-opacity:1;stroke-dasharray:none"
           d="M 2680.19,1918.57 4865.61,3180.32"
           inkscape:connector-curvature="0" />
        <path
           id="path4232"
           style="fill:none;stroke:#231f20;stroke-width:1.21429002;stroke-linecap:butt;stroke-linejoin:miter;stroke-miterlimit:2.61310005;stroke-opacity:1;stroke-dasharray:none"
           d="M 2710.55,1865.99 4895.96,3127.74"
           inkscape:connector-curvature="0" />
        <path
           id="path4234"
           style="fill:none;stroke:#231f20;stroke-width:1.21429002;stroke-linecap:butt;stroke-linejoin:miter;stroke-miterlimit:2.61310005;stroke-opacity:1;stroke-dasharray:none"
           d="M 2740.91,1813.41 4926.32,3075.16"
           inkscape:connector-curvature="0" />
        <path
           id="path4236"
           style="fill:none;stroke:#231f20;stroke-width:1.21429002;stroke-linecap:butt;stroke-linejoin:miter;stroke-miterlimit:2.61310005;stroke-opacity:1;stroke-dasharray:none"
           d="M 2771.26,1760.83 4956.68,3022.58"
           inkscape:connector-curvature="0" />
        <path
           id="path4238"
           style="fill:none;stroke:#231f20;stroke-width:1.21429002;stroke-linecap:butt;stroke-linejoin:miter;stroke-miterlimit:2.61310005;stroke-opacity:1;stroke-dasharray:none"
           d="M 2801.62,1708.25 4987.04,2970"
           inkscape:connector-curvature="0" />
      </g>
    </g>
    <path
       id="path4240"
       style="fill:none;stroke:#231f20;stroke-width:0.632478;stroke-linecap:butt;stroke-linejoin:miter;stroke-miterlimit:2.61310005;stroke-opacity:1;stroke-dasharray:none"
       d="m 107.32529,27.175219 24.279,60.2715 66.0045,58.485001 64.15875,18.2295"
       inkscape:connector-curvature="0" />
    <path
       id="path4242"
       style="fill:#231f20;fill-opacity:1;fill-rule:evenodd;stroke:none"
       d="m 132.23129,91.745719 c -1.683,0 -3.0555,-1.3725 -3.0555,-3.05475 0,-1.68375 1.3725,-3.05625 3.0555,-3.05625 1.683,0 3.0555,1.3725 3.0555,3.05625 0,1.68225 -1.3725,3.05475 -3.0555,3.05475"
       inkscape:connector-curvature="0" />
    <path
       id="path4244"
       style="fill:none;stroke:#231f20;stroke-width:0.632478;stroke-linecap:butt;stroke-linejoin:miter;stroke-miterlimit:2.61310005;stroke-opacity:1;stroke-dasharray:none"
       d="m 132.23129,91.745719 c -1.683,0 -3.0555,-1.3725 -3.0555,-3.05475 0,-1.68375 1.3725,-3.05625 3.0555,-3.05625 1.683,0 3.0555,1.3725 3.0555,3.05625 0,1.68225 -1.3725,3.05475 -3.0555,3.05475 z"
       inkscape:connector-curvature="0" />
    <path
       id="path4246"
       style="fill:#231f20;fill-opacity:1;fill-rule:evenodd;stroke:none"
       d="m 197.54129,149.00972 c -1.683,0 -3.0555,-1.3725 -3.0555,-3.0555 0,-1.683 1.3725,-3.0555 3.0555,-3.0555 1.683,0 3.05625,1.3725 3.05625,3.0555 0,1.683 -1.37325,3.0555 -3.05625,3.0555"
       inkscape:connector-curvature="0" />
    <path
       id="path4248"
       style="fill:none;stroke:#231f20;stroke-width:0.632478;stroke-linecap:butt;stroke-linejoin:miter;stroke-miterlimit:2.61310005;stroke-opacity:1;stroke-dasharray:none"
       d="m 197.54129,149.00972 c -1.683,0 -3.0555,-1.3725 -3.0555,-3.0555 0,-1.683 1.3725,-3.0555 3.0555,-3.0555 1.683,0 3.05625,1.3725 3.05625,3.0555 0,1.683 -1.37325,3.0555 -3.05625,3.0555 z"
       inkscape:connector-curvature="0" />
    <path
       id="path4250"
       style="fill:none;stroke:#231f20;stroke-width:1.26495755;stroke-linecap:butt;stroke-linejoin:miter;stroke-miterlimit:2.61310005;stroke-opacity:1;stroke-dasharray:none"
       d="m 131.90729,88.658719 67.149,58.326001"
       inkscape:connector-curvature="0" />
    <path
       id="path4252"
       style="fill:none;stroke:#231f20;stroke-width:0.632478;stroke-linecap:butt;stroke-linejoin:miter;stroke-miterlimit:2.61310005;stroke-opacity:1;stroke-dasharray:none"
       d="m 25.591045,126.54047 32.349,-3.43125 65.188495,16.665 46.0725,48.5235 10.7835,42.642"
       inkscape:connector-curvature="0" />
    <path
       id="path4254"
       style="fill:#231f20;fill-opacity:1;fill-rule:evenodd;stroke:none"
       d="m 123.84104,143.91347 c -1.683,0 -3.0555,-1.3725 -3.0555,-3.0555 0,-1.683 1.3725,-3.0555 3.0555,-3.0555 1.683,0 3.0555,1.3725 3.0555,3.0555 0,1.683 -1.3725,3.0555 -3.0555,3.0555"
       inkscape:connector-curvature="0" />
    <path
       id="path4256"
       style="fill:none;stroke:#231f20;stroke-width:0.632478;stroke-linecap:butt;stroke-linejoin:miter;stroke-miterlimit:2.61310005;stroke-opacity:1;stroke-dasharray:none"
       d="m 123.84104,143.91347 c -1.683,0 -3.0555,-1.3725 -3.0555,-3.0555 0,-1.683 1.3725,-3.0555 3.0555,-3.0555 1.683,0 3.0555,1.3725 3.0555,3.0555 0,1.683 -1.3725,3.0555 -3.0555,3.0555 z"
       inkscape:connector-curvature="0" />
    <path
       id="path4258"
       style="fill:none;stroke:#231f20;stroke-width:0.632478;stroke-linecap:butt;stroke-linejoin:miter;stroke-miterlimit:2.61310005;stroke-opacity:1;stroke-dasharray:3.16239, 3.16239;stroke-dashoffset:0"
       d="M 58.714045,122.86322 168.67154,189.15647"
       inkscape:connector-curvature="0" />
    <path
       id="path4260"
       style="fill:#e9e9e9;fill-opacity:1;fill-rule:evenodd;stroke:none"
       d="m 58.652545,126.26897 c -1.683,0 -3.0555,-1.37325 -3.0555,-3.0555 0,-1.68375 1.3725,-3.05625 3.0555,-3.05625 1.68375,0 3.05625,1.3725 3.05625,3.05625 0,1.68225 -1.3725,3.0555 -3.05625,3.0555"
       inkscape:connector-curvature="0" />
    <path
       id="path4262"
       style="fill:none;stroke:#231f20;stroke-width:0.632478;stroke-linecap:butt;stroke-linejoin:miter;stroke-miterlimit:2.61310005;stroke-opacity:1;stroke-dasharray:none"
       d="m 58.652545,126.26897 c -1.683,0 -3.0555,-1.37325 -3.0555,-3.0555 0,-1.68375 1.3725,-3.05625 3.0555,-3.05625 1.68375,0 3.05625,1.3725 3.05625,3.05625 0,1.68225 -1.3725,3.0555 -3.05625,3.0555 z"
       inkscape:connector-curvature="0" />
    <path
       id="path4264"
       style="fill:#e9e9e9;fill-opacity:1;fill-rule:evenodd;stroke:none"
       d="m 168.93329,191.94722 c -1.683,0 -3.0555,-1.3725 -3.0555,-3.05625 0,-1.683 1.3725,-3.0555 3.0555,-3.0555 1.68375,0 3.05625,1.3725 3.05625,3.0555 0,1.68375 -1.3725,3.05625 -3.05625,3.05625"
       inkscape:connector-curvature="0" />
    <path
       id="path4266"
       style="fill:none;stroke:#231f20;stroke-width:0.632478;stroke-linecap:butt;stroke-linejoin:miter;stroke-miterlimit:2.61310005;stroke-opacity:1;stroke-dasharray:none"
       d="m 168.93329,191.94722 c -1.683,0 -3.0555,-1.3725 -3.0555,-3.05625 0,-1.683 1.3725,-3.0555 3.0555,-3.0555 1.68375,0 3.05625,1.3725 3.05625,3.0555 0,1.68375 -1.3725,3.05625 -3.05625,3.05625 z"
       inkscape:connector-curvature="0" />
    <path
       id="path4268"
       style="fill:none;stroke:#231f20;stroke-width:0.632478;stroke-linecap:butt;stroke-linejoin:miter;stroke-miterlimit:2.61310005;stroke-opacity:1;stroke-dasharray:none"
       d="M 199.98179,188.49197 58.471795,100.42847"
       inkscape:connector-curvature="0" />
    <path
       id="path4270"
       style="fill:#231f20;fill-opacity:1;fill-rule:evenodd;stroke:none"
       d="m 57.157045,103.53572 -3.38325,-6.030751 6.9045,0.37125 -3.52125,5.659501"
       inkscape:connector-curvature="0" />
    <path
       id="path4272"
       style="fill:none;stroke:#231f20;stroke-width:0.632478;stroke-linecap:butt;stroke-linejoin:miter;stroke-miterlimit:2.61310005;stroke-opacity:1;stroke-dasharray:none"
       d="M 98.743045,59.615719 236.48279,179.30522"
       inkscape:connector-curvature="0" />
    <path
       id="path4274"
       style="fill:#231f20;fill-opacity:1;fill-rule:evenodd;stroke:none"
       d="m 238.27229,176.44472 2.38725,6.48975 -6.75975,-1.458 4.3725,-5.03175"
       inkscape:connector-curvature="0" />
    <path
       id="path4276"
       style="fill:#ffffff;fill-opacity:1;fill-rule:evenodd;stroke:none"
       d="m 152.10029,108.56447 c -1.683,0 -3.0555,-1.3725 -3.0555,-3.0555 0,-1.683 1.3725,-3.0555 3.0555,-3.0555 1.68375,0 3.05625,1.3725 3.05625,3.0555 0,1.683 -1.3725,3.0555 -3.05625,3.0555"
       inkscape:connector-curvature="0" />
    <path
       id="path4278"
       style="fill:none;stroke:#231f20;stroke-width:0.632478;stroke-linecap:butt;stroke-linejoin:miter;stroke-miterlimit:2.61310005;stroke-opacity:1;stroke-dasharray:none"
       d="m 152.10029,108.56447 c -1.683,0 -3.0555,-1.3725 -3.0555,-3.0555 0,-1.683 1.3725,-3.0555 3.0555,-3.0555 1.68375,0 3.05625,1.3725 3.05625,3.0555 0,1.683 -1.3725,3.0555 -3.05625,3.0555 z"
       inkscape:connector-curvature="0" />
    <path
       id="path4280"
       style="fill:none;stroke:#231f20;stroke-width:0.632478;stroke-linecap:butt;stroke-linejoin:miter;stroke-miterlimit:2.61310005;stroke-opacity:1;stroke-dasharray:0.632478, 1.8974325;stroke-dashoffset:0"
       d="m 125.20079,139.46972 23.03325,-28.6485"
       inkscape:connector-curvature="0" />
    <path
       id="path4282"
       style="fill:#231f20;fill-opacity:1;fill-rule:evenodd;stroke:none"
       d="m 150.27779,108.27947 -3.35925,1.5405 2.5755,2.07075 0.78375,-3.61125"
       inkscape:connector-curvature="0" />
    <path
       id="path4284"
       style="fill:none;stroke:#231f20;stroke-width:0.632478;stroke-linecap:butt;stroke-linejoin:miter;stroke-miterlimit:2.61310005;stroke-opacity:1;stroke-dasharray:0.632478, 1.8974325;stroke-dashoffset:0"
       d="M 68.938045,162.45497 167.65004,47.147719"
       inkscape:connector-curvature="0" />
    <path
       id="path4286"
       style="fill:none;stroke:#231f20;stroke-width:0.632478;stroke-linecap:butt;stroke-linejoin:miter;stroke-miterlimit:2.61310005;stroke-opacity:1;stroke-dasharray:0.632478, 1.8974325;stroke-dashoffset:0"
       d="m 136.46279,216.81797 98.712,-115.30725"
       inkscape:connector-curvature="0" />
    <path
       id="path4288"
       style="fill:#231f20;fill-opacity:1;fill-rule:evenodd;stroke:none"
       d="m 109.95179,129.43622 0,-0.44475 0.47325,-0.0308 c 0.31125,-0.015 0.5085,-0.0555 0.594,-0.1215 0.084,-0.0675 0.1545,-0.225 0.216,-0.47025 0.14625,-0.5895 0.4245,-2.09925 0.82875,-4.53375 0.405,-2.433 0.6075,-3.76575 0.6075,-3.99675 0,-0.1995 -0.063,-0.3315 -0.192,-0.402 -0.129,-0.0682 -0.519,-0.1185 -1.1715,-0.1545 l 0,-0.40725 c 1.02225,0.0428 1.70025,0.066 2.031,0.066 0.3165,0 0.77175,-0.0127 1.37175,-0.0383 0.5565,-0.0225 0.966,-0.0352 1.22925,-0.0352 0.69525,0 1.22925,0.0862 1.596,0.258 0.36975,0.17475 0.65775,0.44025 0.86775,0.7965 0.21,0.36 0.3165,0.7875 0.3165,1.2885 0,0.6375 -0.1725,1.2615 -0.51375,1.8765 -0.339,0.615 -0.77925,1.08825 -1.31775,1.41675 -0.53925,0.32925 -1.11825,0.4935 -1.743,0.4935 -0.45825,0 -0.90825,-0.11625 -1.3485,-0.3495 l 0,-0.468 c 0.42975,0.17025 0.80475,0.25275 1.1205,0.25275 0.74175,0 1.33575,-0.285 1.78875,-0.85425 0.453,-0.5715 0.678,-1.28775 0.678,-2.148 0,-0.6405 -0.1845,-1.13325 -0.552,-1.4745 -0.369,-0.339 -0.90525,-0.5115 -1.611,-0.5115 -0.28575,0 -0.68775,0.0435 -1.2015,0.12675 -0.42525,2.193 -0.8175,4.3815 -1.179,6.5595 -0.2025,1.21425 -0.30375,1.986 -0.30375,2.31225 0,0.18675 0.0585,0.3105 0.17475,0.369 0.11625,0.0608 0.56625,0.11925 1.35375,0.18 l 0,0.44475 c -1.08825,-0.0353 -1.88775,-0.0525 -2.40075,-0.0525 -0.5445,0 -1.116,0.0172 -1.713,0.0525"
       inkscape:connector-curvature="0" />
    <path
       id="path4290"
       style="fill:#231f20;fill-opacity:1;fill-rule:evenodd;stroke:none"
       d="m 144.61754,127.84472 0,-0.4455 0.474,-0.03 c 0.31125,-0.0158 0.50775,-0.0555 0.594,-0.1215 0.084,-0.0683 0.1545,-0.225 0.21525,-0.47025 0.147,-0.5895 0.4245,-2.1 0.8295,-4.53375 0.405,-2.433 0.6075,-3.7665 0.6075,-3.99675 0,-0.20025 -0.063,-0.3315 -0.19275,-0.402 -0.12825,-0.069 -0.51825,-0.11925 -1.17075,-0.1545 l 0,-0.40725 c 1.02225,0.0428 1.6995,0.066 2.031,0.066 0.3165,0 0.77175,-0.0127 1.371,-0.0383 0.5565,-0.0225 0.96675,-0.0352 1.22925,-0.0352 0.696,0 1.23,0.0855 1.59675,0.258 0.369,0.174 0.65775,0.44025 0.86775,0.7965 0.21,0.35925 0.31575,0.78675 0.31575,1.28775 0,0.6375 -0.17175,1.26225 -0.513,1.87725 -0.339,0.61425 -0.77925,1.0875 -1.31775,1.41675 -0.53925,0.3285 -1.11825,0.4935 -1.74375,0.4935 -0.4575,0 -0.9075,-0.117 -1.34775,-0.3495 l 0,-0.468 c 0.42975,0.1695 0.804,0.25275 1.1205,0.25275 0.741,0 1.33575,-0.28575 1.78875,-0.855 0.453,-0.5715 0.678,-1.28775 0.678,-2.14725 0,-0.6405 -0.1845,-1.13325 -0.552,-1.47525 -0.36975,-0.339 -0.90525,-0.51075 -1.611,-0.51075 -0.28575,0 -0.6885,0.0427 -1.2015,0.126 -0.426,2.19375 -0.8175,4.3815 -1.179,6.56025 -0.20325,1.2135 -0.30375,1.98525 -0.30375,2.3115 0,0.1875 0.0577,0.31125 0.17475,0.36975 0.11625,0.0608 0.56625,0.1185 1.353,0.17925 l 0,0.4455 c -1.0875,-0.036 -1.887,-0.0533 -2.40075,-0.0533 -0.54375,0 -1.11525,0.0172 -1.713,0.0533"
       inkscape:connector-curvature="0" />
    <path
       id="path4292"
       style="fill:#231f20;fill-opacity:1;fill-rule:evenodd;stroke:none"
       d="m 157.59554,116.77697 0.177,0.21 c -0.56925,1.16925 -1.2855,2.277 -2.15025,3.3195 -0.16725,0.0728 -0.339,0.13875 -0.519,0.192 l -0.13125,-0.111 c 0.3795,-0.58725 0.64275,-1.06275 0.792,-1.422 0.14925,-0.36225 0.31125,-0.9585 0.48825,-1.794 0.387,-0.0832 0.8325,-0.2145 1.34325,-0.3945"
       inkscape:connector-curvature="0" />
    <path
       id="path4294"
       style="fill:#231f20;fill-opacity:1;fill-rule:evenodd;stroke:none"
       d="m 192.46979,162.27947 0,-0.438 0.468,-0.0225 c 0.3495,-0.015 0.567,-0.0555 0.648,-0.11925 0.081,-0.063 0.1545,-0.21975 0.2175,-0.468 0.11325,-0.4575 0.39675,-1.983 0.8445,-4.5705 0.37725,-2.1885 0.56475,-3.49425 0.56475,-3.9135 0,-0.20775 -0.066,-0.3495 -0.19725,-0.423 -0.12975,-0.0735 -0.53175,-0.13125 -1.2045,-0.1695 l 0,-0.42975 c 1.0575,0.0375 1.8165,0.0577 2.277,0.0577 0.3645,0 0.83175,-0.0142 1.401,-0.045 0.39,-0.018 0.70875,-0.0285 0.95325,-0.0285 0.91125,0 1.5795,0.1875 2.00925,0.5625 0.42975,0.3765 0.645,0.87975 0.645,1.512 0,0.42 -0.12375,0.8505 -0.369,1.29075 -0.24825,0.4395 -0.58425,0.804 -1.01025,1.095 -0.4245,0.294 -1.011,0.5235 -1.7625,0.69825 0.8295,1.31775 1.6185,2.51175 2.3655,3.57975 0.513,0.7305 0.84225,1.143 0.984,1.23675 0.114,0.0735 0.33675,0.12675 0.6675,0.15675 l 0,0.438 c -0.44475,-0.036 -0.8175,-0.0533 -1.11825,-0.0533 -0.28275,0 -0.58125,0.0172 -0.89775,0.0533 -0.4455,-0.822 -1.02225,-1.78125 -1.73025,-2.8815 -0.70875,-1.098 -1.33875,-2.0085 -1.887,-2.73 l 0,-0.16425 c 0.31575,0.0405 0.54375,0.0607 0.6825,0.0607 0.465,0 0.92625,-0.1215 1.38675,-0.35925 0.4575,-0.24 0.80925,-0.5565 1.047,-0.94875 0.24,-0.3945 0.35925,-0.8115 0.35925,-1.25625 0,-0.5445 -0.16425,-0.9675 -0.4905,-1.2705 -0.32925,-0.306 -0.83025,-0.4575 -1.503,-0.4575 -0.35925,0 -0.774,0.048 -1.245,0.141 -0.321,1.64475 -0.708,3.85275 -1.16325,6.618 -0.21225,1.28475 -0.31875,2.064 -0.31875,2.33475 0,0.18225 0.0735,0.3015 0.21525,0.357 0.078,0.0277 0.453,0.0675 1.1205,0.1185 l -0.0608,0.438 c -0.68025,-0.036 -1.257,-0.0533 -1.725,-0.0533 -0.49575,0 -1.2195,0.0172 -2.1735,0.0533"
       inkscape:connector-curvature="0" />
    <path
       id="path4296"
       style="fill:#231f20;fill-opacity:1;fill-rule:evenodd;stroke:none"
       d="m 123.01754,94.642969 0.3645,0 c -0.0405,0.6855 -0.2175,1.212 -0.53325,1.57875 -0.3165,0.3645 -0.699,0.549 -1.14075,0.549 -0.29925,0 -0.6075,-0.063 -0.92925,-0.1875 -0.4875,-0.18225 -1.287,-0.58125 -2.4,-1.1985 -0.648,-0.36225 -1.08525,-0.582 -1.3155,-0.663 -0.23025,-0.0832 -0.453,-0.12375 -0.6705,-0.12375 -0.37725,0 -0.66825,0.129 -0.87525,0.38625 -0.20775,0.25575 -0.3135,0.69075 -0.31875,1.3035 l -0.37725,-0.177 -0.007,-0.36975 c 0,-0.39225 0.0735,-0.711 0.22275,-0.95625 0.147,-0.2475 0.369,-0.44775 0.663,-0.6015 0.29325,-0.15225 0.6525,-0.23025 1.07775,-0.23025 -0.64275,-0.1215 -1.15425,-0.309 -1.533,-0.55425 -0.52875,-0.3465 -0.92625,-0.7995 -1.1895,-1.3605 -0.2655,-0.5625 -0.39675,-1.25775 -0.39675,-2.09475 0,-1.32375 0.27525,-2.523 0.8295,-3.5925 0.55425,-1.0725 1.275,-1.875 2.163,-2.406 0.89025,-0.531 1.94475,-0.7965 3.16425,-0.7965 1.356,0 2.38575,0.35175 3.0915,1.05225 0.70575,0.7005 1.05975,1.7025 1.05975,3 0,1.257 -0.28275,2.421 -0.84675,3.49125 -0.567,1.0725 -1.30575,1.88925 -2.21625,2.45325 -0.9135,0.564 -1.9305,0.84525 -3.051,0.84525 -0.192,0 -0.48075,-0.0127 -0.86775,-0.0375 0.51375,0.1005 1.083,0.29325 1.7055,0.579 1.2795,0.597 2.0385,0.94125 2.27625,1.02975 0.42525,0.16425 0.7815,0.24525 1.0725,0.24525 0.273,0 0.48375,-0.078 0.63525,-0.23325 0.14925,-0.15675 0.2655,-0.465 0.3435,-0.93075 z m -8.034,-4.86975 c 0,1.25475 0.2985,2.16525 0.89325,2.73225 0.597,0.564 1.389,0.8475 2.37525,0.8475 1.4925,0 2.61075,-0.64275 3.34875,-1.9275 0.6735,-1.1685 1.01025,-2.568 1.01025,-4.194 0,-0.83475 -0.1245,-1.49775 -0.37275,-1.989 -0.24525,-0.49275 -0.609,-0.87 -1.0875,-1.1355 -0.48075,-0.26325 -1.0725,-0.3945 -1.77825,-0.3945 -0.87525,0 -1.61925,0.207 -2.2365,0.6225 -0.61425,0.41475 -1.12575,1.113 -1.5375,2.097 -0.41025,0.98175 -0.615,2.097 -0.615,3.34125"
       inkscape:connector-curvature="0" />
    <path
       id="path4298"
       style="fill:#231f20;fill-opacity:1;fill-rule:evenodd;stroke:none"
       d="m 51.451795,90.489469 0,1.0905 -2.31225,0 c -0.1695,1.626 -0.25275,2.739 -0.25275,3.34125 0,0.48075 0.0908,0.82725 0.27075,1.0425 0.17925,0.21525 0.40725,0.321 0.678,0.321 0.20175,0 0.37875,-0.0682 0.52575,-0.207 0.14925,-0.13725 0.258,-0.375 0.32625,-0.711 l 0.26025,0 c -0.0855,0.80925 -0.2655,1.371 -0.54075,1.67925 -0.27825,0.309 -0.60225,0.46275 -0.972,0.46275 -0.38925,0 -0.7155,-0.17625 -0.97875,-0.531 -0.26025,-0.35175 -0.3915,-0.984 -0.3915,-1.89225 0,-0.7155 0.0885,-1.884 0.26475,-3.5055 l -0.69525,0 c -0.39975,0 -0.71325,0.0735 -0.94125,0.2175 -0.22725,0.14625 -0.45225,0.42225 -0.675,0.82725 l -0.27375,0 c 0.357,-0.94875 0.67575,-1.54125 0.95625,-1.779 0.28125,-0.23775 0.681,-0.35625 1.2015,-0.35625 l 3.54975,0"
       inkscape:connector-curvature="0" />
    <path
       id="path4300"
       style="fill:none;stroke:#231f20;stroke-width:0.632478;stroke-linecap:butt;stroke-linejoin:miter;stroke-miterlimit:2.61310005;stroke-opacity:1;stroke-dasharray:3.16239, 1.8974325;stroke-dashoffset:0"
       d="m 132.26129,88.804969 -8.77275,52.296001 73.88925,5.061"
       inkscape:connector-curvature="0" />
  </g>
</svg>
