<?xml version="1.0" encoding="UTF-8" standalone="no"?>
<!-- Created with Inkscape (http://www.inkscape.org/) -->

<svg
   xmlns:dc="http://purl.org/dc/elements/1.1/"
   xmlns:cc="http://creativecommons.org/ns#"
   xmlns:rdf="http://www.w3.org/1999/02/22-rdf-syntax-ns#"
   xmlns:svg="http://www.w3.org/2000/svg"
   xmlns="http://www.w3.org/2000/svg"
   xmlns:sodipodi="http://sodipodi.sourceforge.net/DTD/sodipodi-0.dtd"
   xmlns:inkscape="http://www.inkscape.org/namespaces/inkscape"
   width="744.09448819"
   height="1052.3622047"
   id="svg2"
   version="1.1"
   inkscape:version="0.48.2 r9819"
   sodipodi:docname="remote_nodes.eps">
  <defs
     id="defs4">
    <inkscape:perspective
       sodipodi:type="inkscape:persp3d"
       inkscape:vp_x="0 : 526.18109 : 1"
       inkscape:vp_y="0 : 1000 : 0"
       inkscape:vp_z="744.09448 : 526.18109 : 1"
       inkscape:persp3d-origin="372.04724 : 350.78739 : 1"
       id="perspective2987" />
  </defs>
  <sodipodi:namedview
     id="base"
     pagecolor="#ffffff"
     bordercolor="#666666"
     borderopacity="1.0"
     inkscape:pageopacity="0.0"
     inkscape:pageshadow="2"
     inkscape:zoom="1.4"
     inkscape:cx="44.633059"
     inkscape:cy="650.50715"
     inkscape:document-units="px"
     inkscape:current-layer="layer1"
     showgrid="false"
     inkscape:object-paths="true"
     inkscape:snap-object-midpoints="true"
     inkscape:snap-bbox="true"
     inkscape:bbox-paths="true"
     inkscape:bbox-nodes="true"
     inkscape:snap-bbox-edge-midpoints="true"
     inkscape:snap-bbox-midpoints="true"
     inkscape:window-width="1920"
     inkscape:window-height="1021"
     inkscape:window-x="0"
     inkscape:window-y="27"
     inkscape:window-maximized="1" />
  <metadata
     id="metadata7">
    <rdf:RDF>
      <cc:Work
         rdf:about="">
        <dc:format>image/svg+xml</dc:format>
        <dc:type
           rdf:resource="http://purl.org/dc/dcmitype/StillImage" />
        <dc:title></dc:title>
      </cc:Work>
    </rdf:RDF>
  </metadata>
  <g
     inkscape:label="Layer 1"
     inkscape:groupmode="layer"
     id="layer1">
    <rect
       style="fill:none;stroke:#000000"
       id="rect3009"
       width="111.11681"
       height="111.11681"
       x="56.03447"
       y="112.92032" />
    <rect
       style="fill:none;stroke:#000000"
       id="rect3009-2"
       width="111.11681"
       height="111.11681"
       x="167.15128"
       y="112.92032" />
    <rect
       style="fill:none;stroke:#000000"
       id="rect3009-3"
       width="111.11681"
       height="111.11681"
       x="278.2681"
       y="112.92032" />
    <rect
       style="fill:none;stroke:#000000"
       id="rect3009-37"
       width="111.11681"
       height="111.11681"
       x="56.03447"
       y="224.03714" />
    <rect
       style="fill:none;stroke:#000000"
       id="rect3009-2-0"
       width="111.11681"
       height="111.11681"
       x="167.15128"
       y="224.03714" />
    <rect
       style="fill:none;stroke:#000000"
       id="rect3009-3-5"
       width="111.11681"
       height="111.11681"
       x="278.26807"
       y="224.03714" />
    <path
       sodipodi:type="arc"
       style="fill:#000000;stroke:#000000"
       id="path3078"
       sodipodi:cx="59.83704"
       sodipodi:cy="116.72289"
       sodipodi:rx="3.8025703"
       sodipodi:ry="3.8025703"
       d="m 63.63961,116.72289 a 3.8025703,3.8025703 0 1 1 -7.60514,0 3.8025703,3.8025703 0 1 1 7.60514,0 z"
       transform="translate(-3.0304576,-3.8025742)" />
    <path
       sodipodi:type="arc"
       style="fill:#000000;stroke:#000000"
       id="path3078-7"
       sodipodi:cx="59.83704"
       sodipodi:cy="116.72289"
       sodipodi:rx="3.8025703"
       sodipodi:ry="3.8025703"
       d="m 63.63961,116.72289 a 3.8025703,3.8025703 0 1 1 -7.60514,0 3.8025703,3.8025703 0 1 1 7.60514,0 z"
       transform="translate(107.84828,-3.8025742)" />
    <path
       sodipodi:type="arc"
       style="fill:#000000;stroke:#000000"
       id="path3078-4"
       sodipodi:cx="59.83704"
       sodipodi:cy="116.72289"
       sodipodi:rx="3.8025703"
       sodipodi:ry="3.8025703"
       d="m 63.63961,116.72289 a 3.8025703,3.8025703 0 1 1 -7.60514,0 3.8025703,3.8025703 0 1 1 7.60514,0 z"
       transform="translate(218.43106,-3.3116045)" />
    <path
       sodipodi:type="arc"
       style="fill:#000000;stroke:#000000"
       id="path3078-9"
       sodipodi:cx="59.83704"
       sodipodi:cy="116.72289"
       sodipodi:rx="3.8025703"
       sodipodi:ry="3.8025703"
       d="m 63.63961,116.72289 a 3.8025703,3.8025703 0 1 1 -7.60514,0 3.8025703,3.8025703 0 1 1 7.60514,0 z"
       transform="translate(329.09154,-3.8025742)" />
    <path
       sodipodi:type="arc"
       style="fill:#000000;stroke:#000000"
       id="path3078-6"
       sodipodi:cx="59.83704"
       sodipodi:cy="116.72289"
       sodipodi:rx="3.8025703"
       sodipodi:ry="3.8025703"
       d="m 63.63961,116.72289 a 3.8025703,3.8025703 0 1 1 -7.60514,0 3.8025703,3.8025703 0 1 1 7.60514,0 z"
       transform="translate(329.54784,107.31424)" />
    <path
       sodipodi:type="arc"
       style="fill:#000000;stroke:#000000"
       id="path3078-3"
       sodipodi:cx="59.83704"
       sodipodi:cy="116.72289"
       sodipodi:rx="3.8025703"
       sodipodi:ry="3.8025703"
       d="m 63.63961,116.72289 a 3.8025703,3.8025703 0 1 1 -7.60514,0 3.8025703,3.8025703 0 1 1 7.60514,0 z"
       transform="translate(218.6451,107.31425)" />
    <path
       sodipodi:type="arc"
       style="fill:#000000;stroke:#000000"
       id="path3078-1"
       sodipodi:cx="59.83704"
       sodipodi:cy="116.72289"
       sodipodi:rx="3.8025703"
       sodipodi:ry="3.8025703"
       d="m 63.63961,116.72289 a 3.8025703,3.8025703 0 1 1 -7.60514,0 3.8025703,3.8025703 0 1 1 7.60514,0 z"
       transform="translate(107.31424,108.01798)" />
    <path
       sodipodi:type="arc"
       style="fill:#000000;stroke:#000000"
       id="path3078-0"
       sodipodi:cx="59.83704"
       sodipodi:cy="116.72289"
       sodipodi:rx="3.8025703"
       sodipodi:ry="3.8025703"
       d="m 63.63961,116.72289 a 3.8025703,3.8025703 0 1 1 -7.60514,0 3.8025703,3.8025703 0 1 1 7.60514,0 z"
       transform="translate(-3.8025703,107.62987)" />
    <path
       sodipodi:type="arc"
       style="fill:#000000;stroke:#000000"
       id="path3078-2"
       sodipodi:cx="59.83704"
       sodipodi:cy="116.72289"
       sodipodi:rx="3.8025703"
       sodipodi:ry="3.8025703"
       d="m 63.63961,116.72289 a 3.8025703,3.8025703 0 1 1 -7.60514,0 3.8025703,3.8025703 0 1 1 7.60514,0 z"
       transform="translate(-3.8025703,219.12143)" />
    <path
       sodipodi:type="arc"
       style="fill:#000000;stroke:#000000"
       id="path3078-23"
       sodipodi:cx="59.83704"
       sodipodi:cy="116.72289"
       sodipodi:rx="3.8025703"
       sodipodi:ry="3.8025703"
       d="m 63.63961,116.72289 a 3.8025703,3.8025703 0 1 1 -7.60514,0 3.8025703,3.8025703 0 1 1 7.60514,0 z"
       transform="translate(107.31424,218.85358)" />
    <path
       sodipodi:type="arc"
       style="fill:#000000;stroke:#000000"
       id="path3078-44"
       sodipodi:cx="59.83704"
       sodipodi:cy="116.72289"
       sodipodi:rx="3.8025703"
       sodipodi:ry="3.8025703"
       d="m 63.63961,116.72289 a 3.8025703,3.8025703 0 1 1 -7.60514,0 3.8025703,3.8025703 0 1 1 7.60514,0 z"
       transform="translate(218.43105,219.20317)" />
    <path
       sodipodi:type="arc"
       style="fill:#000000;stroke:#000000"
       id="path3078-5"
       sodipodi:cx="59.83704"
       sodipodi:cy="116.72289"
       sodipodi:rx="3.8025703"
       sodipodi:ry="3.8025703"
       d="m 63.63961,116.72289 a 3.8025703,3.8025703 0 1 1 -7.60514,0 3.8025703,3.8025703 0 1 1 7.60514,0 z"
       transform="translate(329.54784,218.38642)" />
    <path
       style="fill:none;stroke:#000000;stroke-width:1px;stroke-linecap:butt;stroke-linejoin:miter;stroke-opacity:1"
       d="M 57.142857,112.92032 278.57143,335.15395"
       id="path3192"
       inkscape:connector-curvature="0" />
    <path
       style="fill:none;stroke:#000000;stroke-width:1px;stroke-linecap:butt;stroke-linejoin:miter;stroke-opacity:1"
       d="M 168.57143,112.92032 389.38488,335.15395"
       id="path3194"
       inkscape:connector-curvature="0" />
    <path
       style="fill:none;stroke:#000000;stroke-width:1px;stroke-linecap:butt;stroke-linejoin:miter;stroke-opacity:1"
       d="M 277.85714,112.92032 389.38491,223.79075"
       id="path3196"
       inkscape:connector-curvature="0" />
    <path
       style="fill:none;stroke:#000000;stroke-width:1px;stroke-linecap:butt;stroke-linejoin:miter;stroke-opacity:1"
       d="m 56.03447,223.79075 111.10839,111.3632"
       id="path3198"
       inkscape:connector-curvature="0" />
    <path
       style="fill:none;stroke:#000000;stroke-width:1;stroke-linecap:butt;stroke-linejoin:miter;stroke-opacity:1;stroke-miterlimit:4;stroke-dasharray:1,1;stroke-dashoffset:0"
       d="m 224.28572,41.647896 0,350.000004"
       id="path3200"
       inkscape:connector-curvature="0" />
    <rect
       style="fill:none;stroke:#ff0000;stroke-width:1;stroke-miterlimit:4;stroke-dasharray:1, 1;stroke-dashoffset:0"
       id="rect3970"
       width="31.428572"
       height="270.71429"
       x="262.85715"
       y="88.076469" />
    <text
       xml:space="preserve"
       style="font-size:28px;font-style:normal;font-weight:normal;line-height:125%;letter-spacing:0px;word-spacing:0px;fill:#000000;fill-opacity:1;stroke:none;font-family:Sans"
       x="59.285717"
       y="73.076469"
       id="text3972"
       sodipodi:linespacing="125%"><tspan
         sodipodi:role="line"
         id="tspan3974"
         x="59.285717"
         y="73.076469">Сетка А</tspan></text>
    <text
       xml:space="preserve"
       style="font-size:28px;font-style:normal;font-weight:normal;line-height:125%;letter-spacing:0px;word-spacing:0px;fill:#000000;fill-opacity:1;stroke:none;font-family:Sans"
       x="259.58197"
       y="73.225517"
       id="text3972-3"
       sodipodi:linespacing="125%"><tspan
         sodipodi:role="line"
         id="tspan3974-0"
         x="259.58197"
         y="73.225517">Сетка Б</tspan></text>
  </g>
</svg>
